/* XPM */
static char *_449a574b85b45acc68c4e71d5c6060aKEfyCzKKIX6eEUNu[] = {
/* columns rows colors chars-per-pixel */
"64 64 256 2 ",
"   c black",
".  c white",
"X  c #3F824F",
"o  c #656364",
"O  c #5F5D5E",
"+  c #E2DEE0",
"@  c #F0E0E9",
"#  c #817E80",
"$  c #C1BEC0",
"%  c #010001",
"&  c #100F10",
"*  c #181718",
"=  c #595759",
"-  c #313031",
";  c #FEFAFE",
":  c #FBF7FB",
">  c #B3B0B3",
",  c #3B3A3B",
"<  c #383738",
"1  c #9B999B",
"2  c #939193",
"3  c #898789",
"4  c #4B4A4B",
"5  c #464546",
"6  c #FFFDFF",
"7  c #F5F3F5",
"8  c #CAC8CA",
"9  c #BAB8BA",
"0  c #FFFEFF",
"q  c #FDFCFD",
"w  c #F2EFF3",
"e  c #D6D3D7",
"r  c #8C8A8D",
"t  c #CECCCF",
"y  c #A7A5A9",
"u  c #4F4E50",
"i  c #717072",
"p  c #686769",
"a  c #E8E7E9",
"s  c #DAD9DB",
"d  c #D1CFD4",
"f  c #6B6A6D",
"g  c #A09FA3",
"h  c #EBEAEE",
"j  c #36353B",
"k  c #ABAAB2",
"l  c #060607",
"z  c #1B1B1E",
"x  c #BFBFCB",
"c  c #79797D",
"v  c #FBFBFE",
"b  c #535354",
"n  c #F7F7F8",
"m  c #838384",
"M  c #484957",
"N  c #51525D",
"B  c #41424B",
"V  c #6A6B74",
"C  c #292A31",
"Z  c #585A68",
"A  c #14151B",
"S  c #B8BAC5",
"D  c #00020A",
"F  c #080C1C",
"G  c #0F121F",
"H  c #373942",
"J  c #797C88",
"K  c #91939C",
"L  c #81838B",
"P  c #86888F",
"I  c #262B3B",
"U  c #6E717B",
"Y  c #969AA7",
"T  c #06080E",
"R  c #2F333F",
"E  c #838896",
"W  c #64676F",
"Q  c #D5D8E1",
"!  c #F3F6FE",
"~  c #1E232F",
"^  c #081229",
"/  c #EAEFFA",
"(  c #23262C",
")  c #5D6167",
"_  c #93ABB1",
"`  c #000101",
"'  c #020404",
"]  c #020706",
"[  c #05271A",
"{  c #CCFCE8",
"}  c #A5B1AC",
"|  c #28A26D",
" . c #3EF39C",
".. c #01170C",
"X. c #49DF94",
"o. c #010302",
"O. c #025C2D",
"+. c #0BC152",
"@. c #3B7F4F",
"#. c #3A7A4D",
"$. c #3E814F",
"%. c #346941",
"&. c #418550",
"*. c #2ED64D",
"=. c #42834F",
"-. c #45864E",
";. c #37A842",
":. c #4B8B4C",
">. c #4D854C",
",. c #3A9C30",
"<. c #588646",
"1. c #609C47",
"2. c #304726",
"3. c #66A245",
"4. c #6B8A43",
"5. c #060803",
"6. c #83B130",
"7. c #2C341B",
"8. c #475517",
"9. c #697636",
"0. c #96A41E",
"q. c #343716",
"w. c #5F642B",
"e. c #7D843B",
"r. c #282A14",
"t. c #A9B701",
"y. c #C2D018",
"u. c #50532B",
"i. c #46481F",
"p. c #A3A449",
"a. c #D7D867",
"s. c #8D8C39",
"d. c #BAB94F",
"f. c #F9F873",
"g. c #464631",
"h. c #050504",
"j. c #6B6B67",
"k. c #FFFFFC",
"l. c #262509",
"z. c #6A694C",
"x. c #5C591D",
"c. c #FBF250",
"v. c #21200C",
"b. c #544F17",
"n. c #D8CE45",
"m. c #90841E",
"M. c #B8AB27",
"N. c #776E1B",
"B. c #ECDA37",
"V. c #403A11",
"C. c #4A4314",
"Z. c #615612",
"A. c #59553D",
"S. c #39310A",
"D. c #D4B92F",
"F. c #312E20",
"G. c #867218",
"H. c #473A09",
"J. c #574710",
"K. c #A88C27",
"L. c #31290C",
"P. c #FCC200",
"I. c #FED042",
"U. c #DCD7C6",
"Y. c #110D02",
"T. c #BA8F27",
"R. c #F2BE35",
"E. c #FDD366",
"W. c #18140A",
"Q. c #635B48",
"!. c #2C2A25",
"~. c #201807",
"^. c #7A5C1C",
"/. c #3F3B32",
"(. c #514E47",
"). c #FFF8E9",
"_. c #6A4F16",
"`. c #CE992F",
"'. c #FCE2AD",
"]. c #C2B69F",
"[. c #EE9703",
"{. c #FBEBD3",
"}. c #C57205",
"|. c #D9810B",
" X c #844F07",
".X c #978D80",
"XX c #4D2B01",
"oX c #B46603",
"OX c #AB7F48",
"+X c #D1A167",
"@X c #E2B783",
"#X c #1F1B16",
"$X c #FFFBF6",
"%X c #9E5500",
"&X c #6C3800",
"*X c #5D3201",
"=X c #412507",
"-X c #FAA549",
";X c #6A4C2A",
":X c #857059",
">X c #8A7D6E",
",X c #AB5800",
"<X c #040200",
"1X c #8B4501",
"2X c #773D01",
"3X c #9A5410",
"4X c #945D25",
"5X c #8B653D",
"6X c #B79C81",
"7X c #352E27",
"8X c #583311",
"9X c #472F18",
"0X c #A28060",
"qX c #8E847B",
"wX c #2D1500",
"eX c #9C4801",
"rX c #976D48",
"tX c #4E3928",
"yX c #381800",
"uX c #1A0B00",
"iX c #E3CEBE",
"pX c #E4D8CF",
"aX c #652901",
"sX c #542302",
"dX c #FD8D40",
"fX c #220E01",
"gX c #FF5A00",
"hX c #CE5710",
"jX c #8A451E",
"kX c #762A02",
"lX c #42403F",
"zX c #787675",
"xX c #FB6B31",
"cX c #D9622E",
"vX c #481401",
"bX c #0C0300",
"nX c #F85726",
"mX c #802C15",
"MX c #140400",
"NX c #FC3304",
"BX c #B0A8A6",
"VX c #B10E00",
"CX c #2E0000",
"ZX c #030000",
"AX c #F40502",
"SX c #780402",
"DX c #090808",
"FX c #222121",
"GX c #282727",
"HX c #262525",
"JX c #343434",
"KX c gray17",
"LX c #131313",
"PX c #0C0C0C",
"IX c #020202",
"UX c None",
/* pixels */
"X X X X X X X X X X X X X X X X X X X X X X X X X X X X X X X X X X X X X X X X X X X X &.&.X X X X X X X X X X X X X X X X X X ",
"X X X X X X X X X X X X X X X X X X X X X X X X X X X X X X X X X X X X X X X X X X X $.#.#.$.X X X X X X X X X X X X X X X X X ",
"X X X X X X X X X X X X X X X X X X X X X X X X X X X X X X X X X X X X X X X X X X &.@.%.%.@.&.X X X X X X X X X X X X X X X X ",
"X X X X X X X X X X X X X X X X X X X X X X X X X X X X X X X X X X X X =.X X X X $.@.#.%.%.#.@.$.X X X X X X X X X X X X X X X ",
"X X X X X X X X X X X X X X X X X X X X X X X X X X X X X X X X X X X X X X X X C.C.b.%.#.#.%.%.#.&.X X X X X X X X X X X X X X ",
"X X X X X X X X X X X X X X X X X X X X X X X X X X X X X X X X X X X X X PX& GXJX- A l L.#.%.%.#.&.X X X X X X X X X X X X X X ",
"X X X X X X X X q.q.w.X X X X X X X X X X $.4.i.q.L.q.w.X X X X X X X X x.D I J k Y N F ~.%.#.@.$.X X X X X X X X X X X X X X X ",
"X X X X X X 9.w.u.u.w.X X X X X X X X $.9.9.w.u.g.u.V.C.w.X X X X X X X L.D I J k g O F ~.%.#.&.X X X X X X X X X X X X X X X X ",
"X X X X X X q.9.a.a.e.q.w.X X >.>.X X w.r.l.w.d.a.a.d.G.S.x.X X e.i.l.~.Y.5.& FXKXGXA l q.#.X X X X X X X X X X X X X X X X X X ",
"X X X X >.b.l e.c.d.i.  MXJ.x.b.x.x.x.9.e.9.p.f.f.c.c.n.N.b.x.=._.&X&X&X&X2X*XvXyXMXZXV.e.e.:.=.X X X X X X X X X X X X X X X X ",
"X X X X X 9.q.N.K.C.LXLX* FXFXFX!.!.!.e.a.f.f.f.n.n.a.f.B.N.5.` ~. XoXoXoX%X1X2XkXwXY._.s.s.4.<.<.>.>.X X X X X X X X X X X X X ",
"X X X X X <.9.Z.V.JXN i r 1 Y Y k Y c A.N.n.c.c.m.b.d.f.c.G.      wXXXXXXXXX=XyXyXMX` l.J.C.V.C.i.w.<.=.X X X X X X X X X X X X ",
"X X X X X X X x.C U 9 e w . . n d $ r M /.N.M.K.Z.x.d.c.M.Z.yXyXwXwXwXwX~.wXfXfXuXuXuXMXMXMXfXuX% LX9.-.X X X X X X X X X X X X ",
"X X X X X X X e.c x 7 6 . . . e o , JXW zXg.L.l.Z.M.B.p.C.H.%XoX%X%X%X%X%X%X2X&X&X&XkX&XaXaX2XaXuXY.9.>.X X X X X X X X X X X X ",
"X X X X X <.9..Xs v . . . . . > PX    c y j ` o.q.m.m.Z.H.G.P.P.P.[.[.[.R.D. X&XT.`.`.`.`.`.oX*X=Xx.e.4.X X X X X X X X X X X X ",
"X X X X X X 7.# a q : h w 0 . $ , PXLXm g j     bXfXfXvX,XP.P.P.P.[.|.|.R.d.u.i.p.f.f.f.c.D.N.L._.`.p.4.<.<.>.>.X X X X X X X X ",
"X X X X X X h.C # 8 > i g : . a 9 r c g 1 JX    CXSXSXVXNXNXgX[.gXNXVX&Xx.z.m zX9.p.f.f.a.s.b._.T.R.R.K.w.x.b.8.X X X X X X X X ",
"X X X X X X Y.FX4 # p 4 2 . . n e $ $ d 1 C ZXfXVXNXNXNXNXNXNXNXNXNXVXyXfXtX8 d p A.d.f.d.7.L.T.R.R.R.m.~.D z KXg.X X X X X X X ",
"X X X X X X #XV 2 u lXg s . . t f i $ + K ( fX X[.P.P.P.P.P.P.P.P.P.[.,X1XoX'.v t f u.K.M.L.L.`.R.R.R.m.Y.^ Z P V g.X X X X X X ",
"X X X X X X & V g i p 1 y 1 1 zXlXi 9 k j.i.5X-XD.t.t.t.y.y.t.t.t.y.B.E.E.E.].Y y zXu.N.N.J.^.`.R.R.T.^.*XtXo L Z F v.X X X X X ",
"X X X X X X W.* u > k 4 KXGXGX5 3 $ y N L.m.f.{..Xl.l.u.>Xz.l.~.q.:X].{.{.iXO GXKXe.d.w.S.G.D.R.R.T.V.XX X2X#XFX* l ` v.X X X X ",
"X X X X X X X Y.z 9 s zX= = = # $ > b T uXM.'.$XJ ` F U k Z ` ' M k S E J U z.w.9.d.n.u.~.T.I.R.K.C.] bXXXyX` wX2X XyX  X X X X ",
"X X X X X X X X !.U k g K 1 1 y g p * & L.m.a.U.J C H g h g j M k d 1 , !.i.d.f.f.c.D.C.~.G.D.T._.Y.Y.Y.uXfX~.2XoXoX&XL.X X X X ",
"X X X X X X X X X g.H B B B 4 4 , < 5 O (.b.u.u 2 1 b f a h 9 8 8 c Q.s.p.d.f.f.c.B.D.J.bXL.8XV.XXXX*X*X2X X X&X*XXXJ.$.X X X X ",
"X X X X X X X X X w.q.L.L.wX5.' z O 2 g f z T z c 1 = lXr 8 a e g O z.p.d.d.p.d.B.B.D.b.` Y.Y.uXaXeXhXhX|.[.hXXX] v.X X X X X X ",
"X X X X X X X X $.=.>.<.@.N.wXA f k 9 y p A z 4 b 5 = u , o 2 O = g 1 u.q.q.q.x.M.c.D.b.MXvX&XkXVXAXAXnXI.-XNXvXW.X X X X X X X ",
"X X X X X X X X X X X X $.4.H.C K e $ g o * z 5 p p O O p o , h.& V P Z M B 4 (.^.M.M.8.CXkXhX`.nXAXAXnXE.-XAXvXL.X X X X X X X ",
"$.$.X X X X X X X X X X X >.V.C K e 8 y p z IXDX# y 4 lXg m &   DX#X(.2 > > k W 7.N.M.x.CXVXxXE.dXAXAXnXE.-XAXvXl.$.-.X X X X X ",
"@.@.$.X X X X X X X X =.>.<.S.C k h a > f z     - u LXDX4 ,   z A.N.Z.z.g S J 5 x.M.M.8.CXVXxXE.dXAXAXnXE.-XAXvXwXX -.X X X X X ",
":.:.=.$.X X X X X X >.<.e.N.S.u d 0 q $ o * PXGXJX< - - < JXj V ].d.N.Y.N 2 Q.Z.M.c.D.8.CXVXxXE.dXAXAXnXE.-XAXvXv.X X X X X $.$.",
"3.1.-.#.$.X X X X X X i.L.l.lXr a . . $ O LX< g 9 9 9 9 9 9 $ s + ].u.  R qXp.M.B.c.D.8.CXVXxXE.dXAXAXnXE.-XAXvXl.X X X X $.@.@.",
"3.1.:.-.=.$.X X X =.w.O Z ) i y h . ; 9 u h.= 7 h t ; . t + . . t g c f V zXs.M.D.y.m.aXSXmXOXdXdXnXNXNXdXdXnXmXsXX X X $.=.:.:.",
"-.:.1.1.:.@.$.X r.v.Q.$ d 8 g y a . 0 $ O LXO e 2 u > $ b c + t 1 y t e 9 i F.Z.M.m.=XSXeX<.9.hXdX-XnXAXAXdXE.nXVXvX$.$.@.:.1.3.",
"-.:.1.1.:.@.>.C.G Z K 1 2 1 9 + . . . a g = = f KX  < lX  & = i 2 s e y > Y I S.M.G.Y.tXs.6.e.^.e.e.mXSXSXOXf.dXAXCX$.$.@.-.1.3.",
"3.1.:.-.=.$.X C.C K 1 HXl z r s + + + n 7 k u PXLXHXGXHXFXFXKXO BXd # HX3 e = S.m.^...O.;.0.6.+.O.' W.v.~.9.d.cXVXMXq.X $.=.-.:.",
"3.1.-.#.$.X X b.LXlX,       - b b b o 8 . s b   5 > y g y y g 9 $ i FX  r a V Y.S.l.] [ O.,.*.+.O.  J.K.m.w.tX=XCX  Y.i.X $.@.@.",
":.:.X $.X X X b.  ( GXPXPXFXFX&       p 8 + 3 JXO 8 h k.. 6 q . s f lXlX3 2 <     uXwXMX[ |  .X.#.!._.`.R.K.S.L.S.V.~.  X X $.$.",
"@.@.$.X X X X C.GX2 m FXHXp i lXl     * O t e # < u 1 + + d s w n e 8 8 # GX&     XX1XyXKX_ { { } = F._.`.`.T.K.T.T._.Y.X X X X ",
"$.$.X X X X X A.2 / S KXJX1 k f z * KXh.GX8 . t ,   JXf W U g + 6 . . . > O i = * &XoXsXj x ; @ > c N /.Z.T.R.I.D.K._.x.X X X X ",
"X X X X X X 7.L 7 $Xg FXKXc r b LXJXo KXGXy n q # & h.DXW./.3 s w t t 7 n a s K HX*X,XXXJXx + 2 c 1 k J 7XJ.`.R.T.S.V.X X X X X ",
"X X X X X X A Y v '.5XW.LXJX< *   lX# lXLX4 g 0 e # A ZXsX^.r Q e zXO > . 6 y 4 & &X,XyX- S > lXf 8 t g U g.J.T.K.~.L.X X X X X ",
"X X X X X X #XJ '.-X1XbX    h.LXLX, b GX    4 e . h U 9X2X4X.Xh d lXT N t + c FXl *XoX_.p Q $ = 2 s g # 1 U g.^.G.C.w.X X X X X ",
"X X X X X X ~.;X`.[.1XbX    - o o 5 z DX    HX2 a 0 s .X9X9Xm h d ,   & # e t c z XX}.+Xd n a 8 t > b < # y L g.XXG.X X =.X X X ",
"X X X X X X Y.&X}.%X_.O f zXy d t 1 j.p b PX% JX2 a . a L U 9 S 3 /.yXwX< K h x C yX|.'.. x S / w 2 z & f 1 c N 4 N.X X X X X X ",
"X X X X X X l.2X%XXXu $ s s a h h + s e > , PXLX4 1 + w s s e V L.aXeX2XwXlXx x < vX}.'.t N (.> + 1 - < 2 zX, W c /.x.$.X X X X ",
"X X X X X <.w.*X;Xi E P P P c i i # 2 r 3 3 3 m u < O c m m i 9XsXeX}.eXvX8X9 U.5XsX*Xz.O 9XsXrX].k J P 9 g o = B F V.X X X X X ",
"X X X X X X &.H.- BX]., W.W.FXC GXLXh.& 5 9 a a c LXLX* * * #X8X3X}.oX3XjXOXiX{.`._.* W.wX&XeXeX0X9 9 BXy > y O * l C.X X X X X ",
"X X X X X X $.i.#XOX+XQ.=X*X:Xg 1 5   LXo y $ $ 3 u 4 5 5 5 4 z.0X0X0X:X6XiXpX].6X:X4 9XaX1XeXeX0X].6X5XlXW g 1 = A C.X X X X X ",
"X X X X X X X $.H.2X4XqX:XrX@X{.. y - - f J J J L P E P E E P E L L J E Q q Q g E E 3 rX4XjXjX4X.X6XrXkXCXFX) k E ~ S.X X X X X ",
"X X X X X X X X X S.7XzXr 0XOXE.).Q V GXKXO m # m r r r 3 r 3 P L L J r e ! $ L J L 3 qX>X>X>X>Xr qX4X1XkXyXHXV U ( i.X X X X X ",
"X X X X X X X X X l.^ U .XOX,X`.{.! S R l ;XOXOXOXOXOXOXOXOXOXOXOXrXrXrX6X6X0X5X5XrX:X# E E K _ Y # :X4XeXkXyX7XlXu.X X X X X X ",
"X X X X X X X X >.i.~ p OX}.eXOXiX: h O wX X|.|.}.}.}.}.}.}.}.}.oX3X2X X1X3X3X1X3X1X3XrX# m 2 BX1 # # :X4X3X2XfXl.X X X X X X X ",
"X X X X X X X X X X u./.^.}.,X3X+X'.).6X1XeXoX,X,X,X,X,X,X,XoXoX%XXXwXwXaX1XeXeXeXeXeX4X4X5XrXOXrX5X# L >X0X:X* ~.X X X X X X X ",
"X X X X X X X X X X X Y.sXoXoXeXoX@X).'.T.2XkX%X,X%X%X%X%X%XeXeX2XyXuXuX*X1X1X&X&X&X&X&X2X1XeXeXeX3XrX>X>XzX= - X X X X X X X X ",
"X X X X X X X X X X X W.yX%X,XeXeX+X$X{.].tXvX,X}.}.}.}.}.,XeX1X1X&X&XaX1X1X=XfXfXfXfXfXyX2XeXeXeXeX3X4X4XtXGXw.X X X X X X X X ",
"X X X X X X X X X X X X =XvXsXaX1XrXBXh / K Q. XoX}.}.}.}.oX%XeXeX%X,X,X,X1XsXyXyXyXyXyXsX1X1X&X*X*XsXsXsX=XX $.X X X X X X X X ",
"X X X X X X X X X X X X X W.uXyX&XsX7XK / Q P FXvX1XeXeX X X X X X1X1X1X1X1X2X2X2X2X2X2X2X1X*XuXbXbXMXuXuX$.X X X X X X X X X X ",
"X X X X X X X X X X X X X X X b.=XbX  I U J M D   wXyXwXwXwXwXyXyXyXyXyXyXyXyXvXyXyXvXyXvXyXMX    ` V.X X X X X X X X X X X X X ",
"X X X X X X X X X X X X X X X X i.v.~.~.~.v.v.~.~.~.~.r.7.2.2.2.7.r.~.~.~.~.~.~.~.~.~.~.~.~.~.~.v.2.X X X X X X X X X X X X X X ",
"X X X X X X X X X X X X X X X X X X X X X X $.X -.:.1.1.:.-.X @.$.$.X X X X X X X X X X X X X X X =.X X X X X X X X X X X X X X ",
"X X X X X X X X X X X X X X X X X X X X X $.@.:.1.1.:.:.1.1.:.@.$.X X X X X X X X X X X X X X X X X X X X X X X X X X X X X X X ",
"X X X X X X X X X X X X X X X X X X X X X $.@.:.1.1.:.:.1.1.:.@.$.X X X X X X X X X X X X X X X X X X X X X X X X X X X X X X X ",
"X X X X X X X X X X X X X X X X X X X X X X $.=.-.:.1.1.:.-.=.$.X X X X X X X X X X X X X X X X X X X X X X X X X X X X X X X X ",
"X X X X X X X X X X X X X X X X X X X X X X X $.#.:.3.3.:.#.$.X X X X X X X X X X X X X X X X X X X X X X X X X X X X X X X X X "
};
