/* XPM */
static char *_c51d1eaad154b92d71b85a66b585f6etLiViNWHN6wSMqua[] = {
/* columns rows colors chars-per-pixel */
"64 64 256 2 ",
"   c black",
".  c white",
"X  c #3F824F",
"o  c #3E814F",
"O  c #340002",
"+  c #625469",
"@  c #FEFDFF",
"#  c #000010",
"$  c #000005",
"%  c #000002",
"&  c #0E0E1B",
"*  c #59596D",
"=  c #51515E",
"-  c #070708",
";  c #242428",
":  c #5E5E65",
">  c #363639",
",  c #75757A",
"<  c #F7F7FF",
"1  c #4F4F50",
"2  c #747475",
"3  c #84869F",
"4  c #242638",
"5  c #8D8FA2",
"6  c #77787E",
"7  c #3C3E48",
"8  c #464955",
"9  c #3F424B",
"0  c #7D7F85",
"q  c #181F2B",
"w  c #5B5D60",
"e  c #636568",
"r  c #616366",
"t  c #5E6063",
"y  c #808285",
"u  c #95979A",
"i  c #A8AAAD",
"p  c #A5A7AA",
"a  c #818488",
"s  c #979A9E",
"d  c #4E5154",
"f  c #4B4E51",
"g  c #56595C",
"h  c #676A6D",
"j  c #66696C",
"k  c #6E7174",
"l  c #6C6F72",
"z  c #6A6D70",
"x  c #686B6E",
"c  c #5D5F61",
"v  c #A1A3A5",
"b  c #949698",
"n  c #939597",
"m  c #535455",
"M  c #969798",
"N  c #45494C",
"B  c #BCC3C8",
"V  c #5F6264",
"C  c #282A2B",
"Z  c #2B2D2E",
"A  c #0E0F0F",
"S  c #6E7171",
"D  c #838484",
"F  c #6D7674",
"G  c #666D6B",
"H  c #0A0D0C",
"J  c #636665",
"K  c #9C9F9E",
"L  c #686F6C",
"P  c #010302",
"I  c #030504",
"U  c #67756E",
"Y  c #5B6B62",
"T  c #87AD95",
"R  c #377C50",
"E  c #387C4F",
"W  c #3B8050",
"Q  c #3B7F50",
"!  c #97B4A0",
"~  c #3D814F",
"^  c #3F8350",
"/  c #3F834F",
"(  c #3E814E",
")  c #3D7E4D",
"_  c #3C7C4C",
"`  c #418651",
"'  c #408450",
"]  c #3C7A4B",
"[  c #3A7648",
"{  c #40824F",
"}  c #346941",
"|  c #356A42",
" . c #366A42",
".. c #A8B9AC",
"X. c #40814E",
"o. c #428250",
"O. c #3E7B4B",
"+. c #42844E",
"@. c #43824F",
"#. c #42804E",
"$. c #949F96",
"%. c #060C07",
"&. c #44804E",
"*. c #468250",
"=. c #44864E",
"-. c #44854E",
";. c #447E4C",
":. c #46874E",
">. c #46854D",
",. c #46874D",
"<. c #47884D",
"1. c #4A8150",
"2. c #48894D",
"3. c #000100",
"4. c #010201",
"5. c #4B8B4C",
"6. c #4C8B4C",
"7. c #040604",
"8. c #739873",
"9. c #8A8D8A",
"0. c #747674",
"q. c #515251",
"w. c #4E8D4C",
"e. c #4C7B4A",
"r. c #52904B",
"t. c #518F4B",
"y. c #5D9A48",
"u. c #5D9948",
"i. c #5F9B47",
"p. c #5E9A48",
"a. c #619D47",
"s. c #CCD5C8",
"d. c #020401",
"f. c #64A046",
"g. c #66A145",
"h. c #65A045",
"j. c #67A245",
"k. c #69A444",
"l. c #32332C",
"z. c #4D4E46",
"x. c #657000",
"c. c #8E9A00",
"v. c #1A1B00",
"b. c #878E02",
"n. c #9FA100",
"m. c #626300",
"M. c #FDFF01",
"N. c #989700",
"B. c #8A8B00",
"V. c #848400",
"C. c #FBFB05",
"Z. c #FFFF0D",
"A. c #0A0A01",
"S. c #FFFF1A",
"D. c #242405",
"F. c #C9C937",
"G. c #FFFF57",
"H. c #535320",
"J. c #FFFF79",
"K. c #FFFFBA",
"L. c #F0EB00",
"P. c #E9E400",
"I. c #898400",
"U. c #827E00",
"Y. c #4A4800",
"T. c #ECE930",
"R. c #D6C900",
"E. c #B3AC00",
"W. c #7A7500",
"Q. c #C4B400",
"!. c #605900",
"~. c #776A00",
"^. c #EACC14",
"/. c #E4BE11",
"(. c #9F820F",
"). c #AB8E13",
"_. c #8D7613",
"`. c #896B10",
"'. c #FDC923",
"]. c #7B5C04",
"[. c #8B6905",
"{. c #97720B",
"}. c #907012",
"|. c #7F6210",
" X c #1B1504",
".X c #F2A701",
"XX c #868583",
"oX c #FC8F0E",
"OX c #8C8681",
"+X c #D95D09",
"@X c #0B0502",
"#X c #B1968B",
"$X c #531000",
"%X c #171616",
"&X c gray99",
"*X c #F8F8F8",
"=X c gray96",
"-X c gray88",
";X c gray86",
":X c #D8D8D8",
">X c #C6C6C6",
",X c gray",
"<X c #BCBCBC",
"1X c gray71",
"2X c #B2B2B2",
"3X c #B1B1B1",
"4X c #ACACAC",
"5X c #A9A9A9",
"6X c gray60",
"7X c #979797",
"8X c gray57",
"9X c #8E8E8E",
"0X c #8B8B8B",
"qX c #888888",
"wX c #868686",
"eX c #818181",
"rX c #7E7E7E",
"tX c gray48",
"yX c #777777",
"uX c gray45",
"iX c #727272",
"pX c #717171",
"aX c gray43",
"sX c #6A6A6A",
"dX c #676767",
"fX c #626262",
"gX c gray38",
"hX c gray37",
"jX c #5D5D5D",
"kX c gray35",
"lX c #565656",
"zX c gray31",
"xX c #4C4C4C",
"cX c #4B4B4B",
"vX c #484848",
"bX c gray27",
"nX c #434343",
"mX c #414141",
"MX c gray24",
"NX c #313131",
"BX c #2C2C2C",
"VX c gray17",
"CX c gray16",
"ZX c gray15",
"AX c #1E1E1E",
"SX c gray11",
"DX c #191919",
"FX c gray7",
"GX c #101010",
"HX c #0C0C0C",
"JX c gray4",
"KX c #090909",
"LX c #060606",
"PX c gray2",
"IX c gray1",
"UX c None",
/* pixels */
"X X X X X X X X X X X X X X X X X X X X X X X X X X X X X X X X X X X X X X X X X X X / ' ' / X X X X X X X X X X X X X X X X X ",
"X X X X X X X X X X X X X X X X X X X X X X X X X X X X X X X X X X X X X X X X X X ^ ( _ _ ( ^ X X X X X X X X X X X X X X X X ",
"X X X X X X X X X X X X X X X X X X X X X X X X X X X X X X X X X X X X X X X X X ^ ` ) | | ) ` ^ X X X X X X X X X X X X X X X ",
"X X X X X X X X X X X { X X X X.X.X.X X X X X X X X X X X X X X X X X X X X X X / ( ) [ } } [ ) ( / X X X X X X X X X X X X X X ",
"X X X X X X X X X X { X X X X X X X X X X X X X X X X X X X X X X X X X X X X X ' _ | } ] ] } | _ ' X X X X X X X X X X X X X X ",
"X X X X X X X X X X X X X X 7 7 7 a X X e.{ X X X X X X X X X X X X X X X X X X ' _ | } ] ] } | _ ' X X X X X X X X X X X X X X ",
"X X X X X X X X X X X X X H.E.E.B.D.6 X X X X X X X X X X X X X X X X X X X X X / ( ) [ } } [ ) ( / X X X X X X X X X X X X X X ",
"X X X X X X X X X X X X H.F.K.J.L.W.D.0 X X X X X X X X X X X X X X X X X X X X X ^ ` ) | | ) ` ^ X X X X X X X X X X X X X X X ",
"X X X X X X X X X X X 3 Y.G.< K.P.Q.!.7 X X X X X X X X X X X X X X X X X X X X X X ^ ( _ _ ( ^ X X { X X X X X X X X X X X X X ",
"X X X X X X X X X X X 5 Y.S.G.T.Q.Q.~.8 X X X { X X X X X X X X X X o o X X X X X X X / ' ' / X X X X X X X X X X X X X X X X X ",
"X X X X X X X X X X X 5 v.E.R.Q.E.E.Y.9 X X X X.X.X.X.{ X X X X X o Q Q o X X X X X X X X X X X X F X X X X X X X X X X X X X X ",
"X X X X X X X X X X X X : D.U.W.I.Y.BX~ X X X X X X X X X X X X.o +.2.2.{ ~ X X X X X X X X X X J d...X X X X X X X X X X X X X ",
"X X X X X X X X X X X X X dXv. Xv.z.{ gXm w w w w w w t iXX X o Q 2.p.u.>.E ( X.e.X X X X k c q.I I ! o.X X X X X X X X X X X X ",
"X X X X X X X X X X #.X o i & >   ; vX      3.3.3.3.3.4.I t t V S 5.g.k.r.=.{ o X X l V q.4.3.4.7.9.X X X X X X X X X X X X X X ",
"X X X X X X X X X X { o Q p KXFX                      3.3.3.3.3.4.V e r r r r r e q.4.  3.3.  3.4.X X X X X X X X X X X X X X X ",
"X X X X X X X X X X o +.2.s NX4XjX                                3.3.3.3.3.3.  3.3.3.        3.M X 1.X X X X X X X X X X X X X ",
"X X X X X X X X X o Q 2.y.v AXdX>                             A.N.n.N.!.                    - 8XD X *.X X X X X X X X X X X X X ",
"X X X X X X X X X o Q 5.j.v AXjXSX                - kXyX    @X).M.M.M./.!.      A qXnXP     PXfXH X { X X X X X X X X X X X X X ",
"X X X X X X X X X o Q 5.h.n cX=XuX                BX=X. , @X).Z.M.M.C.'./.!.    KX. ;XGX    3.4.I X o.X X X X X X X X X X X X X ",
"X X X X X X X X X o Q 5.f.b xX. rXNXaX            DXpXyXB #X+X+X.X.X.X'.'.^.m.d., 3XpXJX    PX8X6XX o.X X X X X X X X X X X X X ",
"X X X X X X X X X o Q 5.f.b cX. iXjX>X                  4 + O O $X$X+XoXoX+X+XXXv VX        I 2 X X #.X X X X X X X X X X X X X ",
"X X X X X X X X X o Q 5.h.b cX. uXcX-XfX             X(.N.B.c.c.c.n..X$X$XO O = q             3.X X #.X X X X X X X X X X X X X ",
"X X X X X X X X X o Q 5.j.b cX. uXnX. ,X             X`.V.U.W.V.V.V.x.b._._._.[.{.}.A.        3.X X X X X X X X X X X X X X X X ",
"X X X X X X X X X o Q 2.y.b cX. uXnX. 3X                  & *     # aXU.`.`.].`.`.|.A.        2 X X X X X X X X X X X X X X X X ",
"X X X X X X X X X X o +.2.b cX. uXnX. 3X                  MX=XZX  kX@ 4   % 8 $           PXqXX 8Xy X X X X X X X X X X X X X X ",
"X X X X X X X X X X X o Q b cX. uXnX. 3X                  SX2X<XqX4XrXK   bX>XGX          PXeXrX3.4.X X X X X X X X X X X X X X ",
"X X X X X X X X X X X X o b cX. uXnX. ,X                  A 1X:X. &X7X*XuX5X0X-                 3.4.X X X X X X X X X X X X X X ",
"o o X X X X X X X X X X X b cX. uXxX-XjX                HX7X4XvX5XyXqXrX:X1X0X                  IXdXX X X X X X X X X X X X X X ",
"Q W o X X X X X X X X X X b cX. uXlX1X                HX6X,XZXPXfXgX> iXqXvXv fX                - X X ;.X X X X X X X X X X X X ",
"5.2.{ ~ X X X X X X X X X b cX. uXlX<X            SXtX9X,XCX  %X2X4XvX>X8X  MX3XfX            3.PX0.X X X X X X X X X X X X o o ",
"j.u.=.R ~ X X X X X X X X b cX. iXjX>X            VX=X*XCX    %XD 4XeX6XaXIX  mX4XtXpXJX      3.P %.T o.X X X X X X X X X o W Q ",
"g.i.r.:.{ o X X X X X X X b cX. tXNXsX            LXq.pX        KX7Xv sX        vX. :XGX    3.4.d.Y 8.X X X X X X X X X o +.2.5.",
"-.w.a.i.2.Q o X X X X X X b cX. wX                                              LXeXmXP 3.3.4.  Y 8.( ( X X X X X X X o Q 2.y.j.",
"-.w.a.i.2.Q o X X X X X X b cX. wX              3.3.3.3.3.3.                      3.3.4.3.V k U 8.` X X X X X X X X X o Q 2.y.j.",
"g.i.r.:.{ o X X X X X X X n q.. 9X      3.A k z z z z z z l zX3.3.3.3.3.3.3.3.3.3.4.r k S X X X o.X X X X X X X X X X X o +.2.5.",
"j.u.=.R ~ X X X X X X X X K CX0XcX    GXz XXX X X X X X X X X h j j j j j j j j x S X X X X X X X X X X X X X X X X X X X o W Q ",
"5.2.{ ~ X X X X X X X X X v SXhXCX%Xc XXX X X X X X X X X X X X X X X X X X X X X X X ;.X X X X X X X X X X X X X X X X X X o o ",
"Q W o X X X X X X X X X X K NX5XzX1 X X X X #.#.X.{ X X { { X X X X X X X X X X.X.{ { X X X X X X X X X X X X X X X X X X X X X ",
"o o X X X X X X X X X X X v A BXLXg X X X { X X X X X X X X X X X X X X X X X X X X X X X X X X X X X X X X X X X X X X X X X X ",
"X X X X X X X X X X X X X u bX-XxXd X X X X X X X X X X X X X X X X X X X X X X X X X X X X X X X X X X X X X X X X X X X X X X ",
"X X X X X X X X X X X X X b xX. yXf X / @.' / X X X X X X X X X X X X X X X X X X X X X X X X X X X X X X X X X X X X X X X X X ",
"X X X X X X X X X X X X X b cX. uXf ^ ( O._ ( ^ X X X X X X X X X X X X X X X X X X X X X X X X X X X X X X X X X X X X X X X X ",
"X X X X X X X X X X X X X b cX. uXf ` )  .| ) ` ^ X X X X X X X X X X X X X X X X X X X X X X X X X X X X X X X X X X X X X X X ",
"X X X X X X X X X X X X X b cX. uXf ) [ } } [ ) ( / X X X X X X X X X X X X X X X X X X X X X X X X X X X X X X X X X X X X X X ",
"X X X X X X X X X X X X X b cX. uXf | } ] ] } | _ ' X X X X X X X X X X X X X X X X X X X X X X X X X X X X X X X X X X X X X X ",
"X X X X X X X X X X X X X b cX. uXf | } ] ] } | _ ' X X X X X X X X X X X X X X X X X X X X X X X X o o X X X X X X X X X X X X ",
"X X X X X X X X X X X X X b cX. uXf ) [ } } [ ) ( / X X X X X X X X X X X X X X X X X X X X X X X o Q Q o X X X X X X X X X X X ",
"X X X X X X X X X X X X X b cX. uXf ` ) | | ) ` ^ X X X X X X X X X X X X X X X X X X X X X o o o +.2.2.+.o X X X X X X X X X X ",
"X X X X X X X X X X X X X b cX. uXf ^ ( _ _ ( ^ X X X X X X X X X X X X X X X X X X X X X o Q Q Q 2.y.y.2.Q o X X X X X X X X X ",
"X X X X X X X X X X X X X b cX. uXf X / ' ' / X X X X X X X X X X X X X X X X X X X X X o +.2.<.~ 5.j.j.5.Q o X X X X X X X X X ",
"X X X X X X X X X X X X X b cX. uXf X X X X X X X X X X X X X X X X X X X X X X X X X o Q 2.y.u.=.<.f.h.5.Q o X X X X X X X X X ",
"X X X X X X X X X X X X X b cX. uXf X X X X X X X X X X X X X X X X X X X X X X X X X o Q 5.j.g.<.,.f.h.5.Q o X X X X X X X X X ",
"X X X X X X X X X X X X X b xX. uXf X X X X X X X X X X X X X X X X X X X X X X X X X o Q 5.h.f.,.<.g.j.5.Q o X X X X X X X X X ",
"X X X X X X X X X X X X X b vX. yXf X X X X X X X X X X X X X X X X X X X X X X X X X o Q 5.h.f.<.=.u.y.2.Q o X X X X X X X X X ",
"X X X X X X X X X X X X X s VX;XsXN X X X X X X X X X X X X X X X X X X X X X X X X X o Q 5.j.j.5.~ <.2.+.o X X X X X X X X X X ",
"X X X X X X X X X X X X X $.Z fXMXG X X X X X X X X o o X X X X X X X X X X X X X X X o Q 2.y.y.2.Q Q Q o X X X X X X X X X X X ",
"X X X X X X X X X X X X X X K C L X X { X X X X X o Q Q o X X X X X X X X X X X X X X X o +.2.2.+.o o o X X X X X X X X X X X X ",
"X X X X X X X X X X X X X X X s.X X X X X X X X ~ { 2.2.{ ~ X X X X X X X X X X X X X X X o Q Q o X X X X X X X X X X X X X X X ",
"X X X X X X X X X X X X X X X &.X X X X X X X ~ R :.i.i.:.R ~ X X X X X X X X X X X X X X X o o X X X X X X X X X X X X X X X X ",
"X X X X X X X X X X X X X X X X X X X X X X o { :.r.a.a.r.:.{ o X X X X X X X X X X X X X X X X X X X X X X X X X X X X X X X X ",
"X X X X X X X X X X X X X X X X X X X X X o Q 2.i.a.6.6.a.i.2.Q o X X X X X X X X X X X X X X X X X X X X X X X X X X X X X X X ",
"X X X X X X X X X X X X X X X X X X X X X o Q 2.i.a.5.5.a.i.2.Q o X X X X X X X X X X X X X X X X X X X X X X X X X X X X X X X ",
"X X X X X X X X X X X X X X X X X X X X X X o { :.t.p.p.t.:.{ o X X X X X X X X X X X X X X X X X X X X X X X X X X X X X X X X ",
"X X X X X X X X X X X X X X X X X X X X X X X ~ R 2.g.g.2.R ~ X X X X X X X X X X X X X X X X X X X X X X X X X X X X X X X X X "
};
