/* XPM */
static char *_2ed493056224921dc2d72e65858d6d8d03RTbRrWw8sLiQx[] = {
/* columns rows colors chars-per-pixel */
"64 64 256 2 ",
"   c black",
".  c white",
"X  c #3F824F",
"o  c #340002",
"O  c #665759",
"+  c #33233A",
"@  c #6C686E",
"#  c #A29DA7",
"$  c #1D1C20",
"%  c #030310",
"&  c #272729",
"*  c #75757A",
"=  c #F7F7FF",
"-  c #7C7C7D",
";  c #989899",
":  c #0A0B2B",
">  c #656AC1",
",  c #4C55A9",
"<  c #1D2453",
"1  c #0E0F17",
"2  c #CDCED5",
"3  c #77787E",
"4  c #3D3F49",
"5  c #7789D2",
"6  c #545559",
"7  c #3A4366",
"8  c #BCCAF8",
"9  c #010205",
"0  c #A6BAF3",
"q  c #9196A5",
"w  c #91AAE9",
"e  c #8CA4D8",
"r  c #B4BBCA",
"t  c #D1E0FE",
"y  c #E1E3E7",
"u  c #AEAFB1",
"i  c #A3A4A6",
"p  c #848B98",
"a  c #D7DADF",
"s  c #E1ECFD",
"d  c #37393C",
"f  c #95979A",
"g  c #979A9E",
"h  c #293039",
"j  c #4B4E51",
"k  c #949698",
"l  c #5D5E5F",
"z  c #E7F4FF",
"x  c #45494C",
"c  c #6E7173",
"v  c #5C666A",
"b  c #9DAAAB",
"n  c #2E2F2F",
"m  c #505151",
"M  c #757676",
"N  c #636464",
"B  c #6A6E6D",
"V  c #9C9F9E",
"C  c #010302",
"Z  c #030504",
"A  c #67756E",
"S  c #87AD95",
"D  c #377C50",
"F  c #3B7F50",
"G  c #3D814F",
"H  c #3E814F",
"J  c #3F8350",
"K  c #3F834F",
"L  c #3D7E4D",
"P  c #3C7C4C",
"I  c #418651",
"U  c #408450",
"Y  c #3C7A4B",
"T  c #3A7648",
"R  c #40824F",
"E  c #346941",
"W  c #356A42",
"Q  c #366A42",
"!  c #A8B9AC",
"~  c #40814E",
"^  c #428250",
"/  c #42844E",
"(  c #43824F",
")  c #42804E",
"_  c #949F96",
"`  c #060C07",
"'  c #468250",
"]  c #45864E",
"[  c #447F4D",
"{  c #47884D",
"}  c #4A8150",
"|  c #48894D",
" . c #000100",
".. c #010201",
"X. c #4B8B4C",
"o. c #739873",
"O. c #898A89",
"+. c #4E8D4C",
"@. c #4C7B4A",
"#. c #52904B",
"$. c #518F4B",
"%. c #5D9A48",
"&. c #5F9B47",
"*. c #619D47",
"=. c #020401",
"-. c #64A046",
";. c #66A145",
":. c #65A045",
">. c #67A245",
",. c #4D4E46",
"<. c #C9C937",
"1. c #FFFF62",
"2. c #535320",
"3. c #FFFFBA",
"4. c #F8F8F5",
"5. c #4A4800",
"6. c #F3EF09",
"7. c #ECE930",
"8. c #D6C900",
"9. c #B3AC00",
"0. c #C4B400",
"q. c #7F7004",
"w. c #1A1703",
"e. c #6E5B02",
"r. c #FFDB2B",
"t. c #91770F",
"y. c #FFD221",
"u. c #FFD62B",
"i. c #FFCB25",
"p. c #C8C0A7",
"a. c #0E0B02",
"s. c #FEBB28",
"d. c #FEF8EA",
"f. c #F3A31C",
"g. c #5E513E",
"h. c #BDAF9A",
"j. c #C9A77A",
"k. c #F08E17",
"l. c #FFDCB1",
"z. c #FFE9CD",
"x. c #261808",
"c. c #FED4A7",
"v. c #CE761E",
"b. c #DD8123",
"n. c #060402",
"m. c #BB9773",
"M. c #3D352D",
"N. c #E7CCB1",
"B. c #C0732C",
"V. c #FCC696",
"C. c #A6896F",
"Z. c #E9C5A3",
"A. c #E0B999",
"S. c #B06731",
"D. c #FA964A",
"F. c #FD9D53",
"G. c #D78B50",
"H. c #D3A888",
"J. c #47250D",
"K. c #E47C36",
"L. c #F6873B",
"P. c #F58C42",
"I. c #E68542",
"U. c #FCA769",
"Y. c #EE9D63",
"T. c #FBC7A2",
"R. c #D75D0D",
"E. c #EA6815",
"W. c #F57929",
"Q. c #E87227",
"!. c #E26F29",
"~. c #D46827",
"^. c #6B3514",
"/. c #DD702C",
"(. c #C66327",
"). c #F07C30",
"_. c #C57E4F",
"`. c #9B735A",
"'. c #EBB08A",
"]. c #F9BC95",
"[. c #79665A",
"{. c #1E0C02",
"}. c #B55A28",
"|. c #CC6B32",
" X c #D2753E",
".X c #A76A46",
"XX c #1C120C",
"oX c #D78F65",
"OX c #F6B28A",
"+X c #AE4E1A",
"@X c #A14E24",
"#X c #A95328",
"$X c #A65B33",
"%X c #75432A",
"&X c #895034",
"*X c #553524",
"=X c #7C523C",
"-X c #ECBAA0",
";X c #95451F",
":X c #33180B",
">X c #8E4A2A",
",X c #6A412F",
"<X c #623E2D",
"1X c #C78465",
"2X c #EBA786",
"3X c #B27E66",
"4X c #7A5848",
"5X c #6B5247",
"6X c #744835",
"7X c #5F4135",
"8X c #D7977B",
"9X c #E29F82",
"0X c #281C17",
"qX c #341B12",
"wX c #D28C72",
"eX c #68483C",
"rX c #855C4D",
"tX c #30221D",
"yX c #C48B77",
"uX c #6A4C41",
"iX c #5C433A",
"pX c #4C3F3A",
"aX c #87736C",
"sX c #422D26",
"dX c #A47362",
"fX c #4A352E",
"gX c #55423C",
"hX c #A48378",
"jX c #120F0E",
"kX c #0B0402",
"lX c #926659",
"zX c #543C35",
"xX c #372925",
"cX c #BC988D",
"vX c #1B1615",
"bX c #493734",
"nX c #724B45",
"mX c #58504F",
"MX c #AB6E68",
"NX c #563E3C",
"BX c #D0B7B5",
"VX c #050101",
"CX c #868383",
"ZX c gray96",
"AX c #C1C1C1",
"SX c #909090",
"DX c gray45",
"FX c #717171",
"GX c #4C4C4C",
"HX c #4B4B4B",
"JX c #484848",
"KX c #434343",
"LX c gray4",
"PX c #060606",
"IX c gray1",
"UX c None",
/* pixels */
"X X X X X X X X X X X X X X X X X X X X X X X X X X X X X X X X X X X X X X X X X X X K U U K X X X X X X X X X X X X X X X X X ",
"X X X X X X X X X X X X X X X X X X X X X X X X X X X X X X X X X X X X X X X X X X J H P P H J X X X X X X X X X X X X X X X X ",
"X X X X X X X X X X X X X X X X X X X X X X X X X X X X X X X X X X X X X X X X X J I L W W L I J X X X X X X X X X X X X X X X ",
"X X X X X X X X X X X R X X X ~ ~ ~ X X X X X X X X }.!.Q.Q.Q.L.F.L.Q.Q.(.X X X K H L T E E T L H K X X X X X X X X X X X X X X ",
"X X X X X X X X X X R X X X X X X X X X X X X X X +X~.L.P.L.L.L.L.P.L.W.Y.j.X X U P W E Y Y E W P U X X X X X X X X X X X X X X ",
"X X X X X X X X X X X X X X 4 4 4 CXX X @.R X X }. XD.D.D.D.D.L.Q.L.F.U.c.c._.X U P W E Y Y E W P U X X X X X X X X X X X X X X ",
"X X X X X X X X X X X X X 2.9.9.t.x.3 X X X R +X/.-Xz.U.D.D.F.L.!.E.Y.z.c.Y.D. XK H L T E E T L H K X X X X X X X X X X X X X X ",
"X X X X X X X X X X X X 2.<.3.1.6.q.x.- X G &X@X~.].z.V.V.T.c.U.W.E.D.z.2XE.D.G.&XJ I L W W L I J X X X X X X X X X X X X X X X ",
"X X X X X X X X X X X p 5.1.= 3.6.0.e.4 G X iX%X#XI.OXc.z.d.. T./.R.K.U.L.Q.D._.iX~ J H P P H J X X R X X X X X X X X X X X X X ",
"X X X X X X X X X X X q 5.6.1.7.0.0.e.j G X pX,X@XK.F.U.].c.l.j.&X%X$XP.L.Q.L.S.pXX X K U U K X X X X X X X X X X X X X X X X X ",
"X X X X X X X X X X L q w.9.8.0.9.9.5.4 X X zX6X#XI.D.!.).D.I..XuXmX.XD.L.Q.W.(.&XX X X X X X X K c X X X X X X X X X X X X X X ",
"X X X X X X X X X X X G N x.q.q.q.5.n G X X gX,X#X/./.+X(.Q.&XnXdXyXoXK.Q.Q.Q.Q.~.&XX X X X X X N =.! X X X X X X X X X X X X X ",
"X X X X X X X X X X X X G B w.w.w.,.K N 6 l gX7X%X~.(.J.^.(.=XlX8X2X3X^.;XW.!.(.$X6XG X X c l m Z Z b / X X X X X X X X X X X X ",
"X X X X X X X X X X ) X H i 1 d =.& JX      iXgXuX|.}.0X*XS.3X8X2X9XlX$ ^.~.@X%XeXG c N m .. ...Z O.K X X X X X X X X X X X X X ",
"X X X X X X X X X X R H F i LXjX            zX5XlX}..Xp CX3XwX2X2XwXhXp aX%X:X0XgXm  .   . .   ...X X X X X X X X X X X X X X X ",
"X X X X X X X X X X H / | g n u l           bXlXyX&XlXy # ,X1X].OXrXO 2 u iX0XvXxX . .         .f X } X X X X X X X X X X X X X ",
"X X X X X X X X X H F | %.i $ N d             4XMX6XaX. p x.3X].8X*Xd r BXdXuXtXn.          PXSXCXX ' X X X X X X X X X X X X X ",
"X X X X X X X X X H F X.>.i $ l $               fXeXcXd.p.`.Z.A.rX4XC.N.A.3XrXxXjXO.KXC     PXN LXX R X X X X X X X X X X X X X ",
"X X X X X X X X X H F X.:.k HXZXDX                sX3XN.l.l.z.u @ m.c.c.H.rXiX0XLX. a jX     ...Z X ^ X X X X X X X X X X X X X ",
"X X X X X X X X X H F X.-.k GX. - n B             VXfX3X2X].2 2 u cX8XOX3XzXvX..* u FXLX    PXSX; X ^ X X X X X X X X X X X X X ",
"X X X X X X X X X H F X.-.k HX. DXl AX..          jXtXsX=X3XBX2 BXhX4X=XeXR.R.CXi &         Z M X X ) X X X X X X X X X X X X X ",
"X X X X X X X X X H F X.:.k HX. DXHXy N           tXtXkXjXzX`.wXdXeX0X  0Xo o 6 $ 9            .X X ) X X X X X X X X X X X X X ",
"X X X X X X X X X H F X.>.k HX. DXKX. AX          w.jXtXXXkXx.*XeXtX    tXzXt.q.t.t.a.         .X X X X X X X X X X X X X X X X ",
"X X X X X X X X X H F | %.k HX. DXKX. u           mX@ CX@ d xX<XrXmXh vXO CXe.q.t.q.n.        M X X X X X X X X X X X X X X X X ",
"X X X X X X X X X X H / | k HX. DXKX. u         5Xh.y r r r H.8X9XBXq iXCXi n PX  9       PXO.X SXCXX X X X X X X X X X X X X X ",
"X X X X X X X X X X X H F k HX. DXKX. u       > # h.# 5 8 . d.z.z.. 2 5XgX7 1             PXCX-  ...X X X X X X X X X X X X X X ",
"X X X X X X X X X X X X H k HX. DXKX. AX  aX> 5 q g.+ , w s s t t z 2 @ $ VX .                   ...X X X X X X X X X X X X X X ",
"H H X X X X X X X X X X X k HX. DXGXy l 3XA.e , &   : , 5 w w w w w 5 , <                       IXN X X X X X X X X X X X X X X ",
"F F H X X X X X X X X X X k HX. DX6 u C.m.C.v <  .  % < , w e e e w 5 < :                       PXX X [ X X X X X X X X X X X X ",
"X.| R G X X X X X X X X X k HX. DX6 4XV.H.7XXX    $ M   v a 2 2 2 y b 4         N              .PXM X X X X X X X X X X X X H H ",
">.%.] D G X X X X X X X X k HX. DX  fX'.c.m.*X0X  & ZX  v a 8 a ZX. y b d       u - FXLX       .C ` S ^ X X X X X X X X X H F F ",
";.&.#.] R H X X X X X X X k HX. - n XX=XH.c.H.[.  PXxX  7 w w 0 t t 8 0 , : %   JX. a jX     ...=.v o.X X X X X X X X X H / | X.",
"] +.*.&.| F H X X X X X X k HX. CX      4XOXz.h.5XuXfXn.< > 5 e e e 5 > , , :  .  - KX . . ...  v o.~ H X X X X X X X H F | %.>.",
"] +.*.&.| F H X X X X X X k HX. CX      XXuXA.z.h.j.lXxXzXdXm.j.j.j.m.lXMX`.zXjX   . ... .N c A o./ X X X X X X X X X H F | %.>.",
";.&.#.] R H X X X X X X X k m . SX        jX=XA.z.-X3X=XS.f.y.y.y.y.i.f.k.b..XbX  ..N c c G X X ^ X X X X X X X X X X X H / | X.",
">.%.] D G X X X X X X X X V & O.HX    jXB CXVX4XOXhX=XB.f.i.y.y.y.y.y.i.f.b.1XuX  c X X X X X X X X X X X X X X X X X X X H F F ",
"X.| R G X X X X X X X X X i $ l & vXl CXX X   sX`.bXJ.v.s.u.u.i.i.i.u.r.s.v.=XbXzXzXX [ X X X X X X X X X X X X X X X X X X H H ",
"F F H X X X X X X X X X X V n i m j X X X X ) 0XiX1 x.v.s.r.r.u.u.u.r.r.s.v.{.xXyXlXiXX X X X X X X X X X X X X X X X X X X X X ",
"H H X X X X X X X X X X X i jXn PX6 X X X R X X X jXx.v.s.r.r.u.u.u.r.r.s.v.{.pXV.8XlXX X X X X X X X X X X X X X X X X X X X X ",
"X X X X X X X X X X X X X f KXy GXm X X X X X X X LX{.^.t.t.t.t.t.t.t.t.t.^.VXM.j.8XX X X X X X X X X X X X X X X X X X X X X X ",
"X X X X X X X X X X X X X k GX. M j X K ( U K X X X VXa.XXx.x.XXa.XXx.x.XXa...vXeXdXG X X X X X X X X X X X X X X X X X X X X X ",
"X X X X X X X X X X X X X k HX. DXj J H Y P H J X X X vXNXrXrXfX  tXnXrXNXvXR   jXG X X X X X X X X X X X X X X X X X X X X X X ",
"X X X X X X X X X X X X X k HX. DXj I L Q W L I J X X fX3X].T.`.jXnX9XOX3XfXX X X X X X X X X X X X X X X X X X X X X X X X X X ",
"X X X X X X X X X X X X X k HX. DXj L T E E T L H K X zXdX].l.m.fXrX8XOX3XzXX X X X X X X X X X X X X X X X X X X X X X X X X X ",
"X X X X X X X X X X X X X k HX. DXj W E Y Y E W P U X X lX9Xc.j.iXeXdX2XdXzXX X X X X X X X X X X X X X X X X X X X X X X X X X ",
"X X X X X X X X X X X X X k HX. DXj W E Y Y E W P U X X X 3XV.j.iXsX4X9X3XzXX X X X X X X X X X X X H H X X X X X X X X X X X X ",
"X X X X X X X X X X X X X k HX. DXj L T E E T L H K X X X 4X].H.iXxX4X9X3XzXX X X X X X X X X X X H F F H X X X X X X X X X X X ",
"X X X X X X X X X X X X X k HX. DXj I L W W L I J X X X uXdXV.j.iXsX4X2X`.tXX X X X X X X X H H H / | | / H X X X X X X X X X X ",
"X X X X X X X X X X X X X k HX. DXj J H P P H J X X X zXC.c.].3XiXfXrX2XrX  X X X X X X X H F F F | %.%.| F H X X X X X X X X X ",
"X X X X X X X X X X X X X k HX. DXj X K U U K X X X X zXh.z.m.nXG bXlXOXrX  X X X X X X H / | { G X.>.>.X.F H X X X X X X X X X ",
"X X X X X X X X X X X X X k HX. DXj X X X X X X X X ~ xXC.Z.5X0XX xXeXyXuX  X X X X X H F | %.%.] { -.:.X.F H X X X X X X X X X ",
"X X X X X X X X X X X X X k HX. DXj X X X X X X X X X C ,X.XtX  X IX0X5XsX  X X X X X H F X.>.;.{ { -.:.X.F H X X X X X X X X X ",
"X X X X X X X X X X X X X k GX. DXj X X X X X X X X X   ^.;X:X  X   jXbXtX  X X X X X H F X.:.-.{ { ;.>.X.F H X X X X X X X X X ",
"X X X X X X X X X X X X X k JX. M j X X X X X X X X X 9 *X;Xx.H X X XX7XsXn.X X X X X H F X.:.-.{ ] %.%.| F H X X X X X X X X X ",
"X X X X X X X X X X X X X g & a @ x X X X X X X X X LXxXeX<XXXX X X XX>X&XxXLXX X X X H F X.>.>.X.G { | / H X X X X X X X X X X ",
"X X X X X X X X X X X X X _ n N d B X X X X X X X {.J.6X&X,XXXX X R x.#X$XpX& LXX X X H F | %.%.| F F F H X X X X X X X X X X X ",
"X X X X X X X X X X X X X X V & B ~ X R X X X X kX^.#X#X$X>Xx.H X X x.;X&XiXeXsXkX  X X H / | | / H H H X X X X X X X X X X X X ",
"X X X X X X X X X X X X X X X 2 / X X X X X X XX^.;X+X#X$X,XXXH X X H :X^.&XB.S.^.{.  X X H F F H X X X X X X X X X X X X X X X ",
"X X X X X X X X X X X X X X K [ ~ X X X X X   J.(.oX1X}.&XpXjXX X X X L *X$XB.B.@XqX  X X X H H X X X X X X X X X X X X X X X X ",
"X X X X X X X X X X X X X X X X X X X X X X L J.b.c.2 S.%XbXjXH X X X X L 6X6X=XeX0X  X X X X X X X X X X X X X X X X X X X X X ",
"X X X X X X X X X X X X X X X X X X X X X H F J.S.hXCX&X*X0X| F H X X X X X X X X H X X X X X X X X X X X X X X X X X X X X X X ",
"X X X X X X X X X X X X X X X X X X X X X H F { zXvXjXNXxX  | F H X X X X X X X X X X X X X X X X X X X X X X X X X X X X X X X ",
"X X X X X X X X X X X X X X X X X X X X X X H R { $.%.%.$.] R H X X X X X X X X X X X X X X X X X X X X X X X X X X X X X X X X ",
"X X X X X X X X X X X X X X X X X X X X X X X G D | ;.;.| D G X X X X X X X X X X X X X X X X X X X X X X X X X X X X X X X X X "
};
