/* XPM */
static char *d66d334455b84d9eeebca696d0509e6bNzk3DuADrsZIkP8f[] = {
/* columns rows colors chars-per-pixel */
"64 64 256 2 ",
"   c black",
".  c white",
"X  c #3F824F",
"o  c #3E814F",
"O  c #635556",
"+  c #221725",
"@  c #33233A",
"#  c #6F6872",
"$  c #232226",
"%  c #0A0B2B",
"&  c #00010D",
"*  c #A2A3AD",
"=  c #4F5AA9",
"-  c #6D7ACB",
";  c #1F2854",
":  c #93A2ED",
">  c #3A4366",
",  c #7E92D5",
"<  c #A6BAF3",
"1  c #BFCEFA",
"2  c #5F636D",
"3  c #90ACE8",
"4  c #8CA3D8",
"5  c #B4BBCA",
"6  c #C2CBDC",
"7  c #D3DAE4",
"8  c #878F9A",
"9  c #DEE8F6",
"0  c #293039",
"q  c #464E57",
"w  c #363A3D",
"e  c #2B2F31",
"r  c #3F6670",
"t  c #41775E",
"y  c #2C6142",
"u  c #377C51",
"i  c #3A7E50",
"p  c #326A44",
"a  c #1B3724",
"s  c #3B8050",
"d  c #3B7F50",
"f  c #367449",
"g  c #3C8050",
"h  c #09100B",
"j  c #3D814F",
"k  c #3B7B4C",
"l  c #3F8150",
"z  c #284E32",
"x  c #030704",
"c  c #3F8350",
"v  c #3F834F",
"b  c #3E814E",
"n  c #3D7E4D",
"m  c #3C7C4C",
"M  c #3A7849",
"N  c #387447",
"B  c #377245",
"V  c #356E43",
"C  c #336A40",
"Z  c #418651",
"A  c #408450",
"S  c #3E7F4D",
"D  c #366F44",
"F  c #30633C",
"G  c #1F4027",
"H  c #3C7A4B",
"J  c #2B5836",
"K  c #346941",
"L  c #24492D",
"P  c #3F7E4E",
"I  c #356A42",
"U  c #41834F",
"Y  c #3B7648",
"T  c #3F7D4C",
"R  c #41804E",
"E  c #101E13",
"W  c #040905",
"Q  c #42844E",
"!  c #448250",
"~  c #42784C",
"^  c #44814E",
"/  c #41754A",
"(  c #070E08",
")  c #45864E",
"_  c #172719",
"`  c #45714A",
"'  c #46874D",
"]  c #47884D",
"[  c #3B6C40",
"{  c #3D6341",
"}  c #48894D",
"|  c #467E4A",
" . c #4B8B4C",
".. c #4C814C",
"X. c #4E8D4C",
"o. c #4C7E4A",
"O. c #52904B",
"+. c #4F8A49",
"@. c #3D5A3A",
"#. c #44733C",
"$. c #374C34",
"%. c #4A6645",
"&. c #579145",
"*. c #5D9A48",
"=. c #5D9948",
"-. c #2E4B24",
";. c #080B07",
":. c #5E9A48",
">. c #568C42",
",. c #609C47",
"<. c #5A9243",
"1. c #64A046",
"2. c #66A145",
"3. c #65A045",
"4. c #66A247",
"5. c #2B3824",
"6. c #659E42",
"7. c #5C903C",
"8. c #69A545",
"9. c #67A245",
"0. c #3E5E2C",
"q. c #6EAA44",
"w. c #597146",
"e. c #4B5940",
"r. c #425127",
"t. c #59614A",
"y. c #717555",
"u. c #010100",
"i. c #706A3B",
"p. c #3A382A",
"a. c #FFDB2B",
"s. c #BEBBAC",
"d. c #FFD221",
"f. c #FFD62B",
"g. c #C1B16E",
"h. c #665E3D",
"j. c #9E8018",
"k. c #927411",
"l. c #FEC820",
"z. c #FFCD29",
"x. c #FEBB28",
"c. c #4D4739",
"v. c #FDF8ED",
"b. c #5C523E",
"n. c #F3A31C",
"m. c #BEB19C",
"M. c #FEECD1",
"N. c #FFDEB1",
"B. c #F08E17",
"V. c #A18C71",
"C. c #E7C9A4",
"Z. c #140E07",
"A. c #9B7E5E",
"S. c #FED5A7",
"D. c #070401",
"F. c #CE761E",
"G. c #DD8123",
"H. c #9D672F",
"J. c #FFBD7D",
"K. c #E7CCB1",
"L. c #161514",
"P. c #C3732B",
"I. c #C78344",
"U. c #23170C",
"Y. c #FCC695",
"T. c #763D0D",
"R. c #CE772F",
"E. c #AD662A",
"W. c #C07334",
"Q. c #FEA258",
"!. c #CDA37E",
"~. c #FECCA0",
"^. c #BB9676",
"/. c #FEDEC2",
"(. c #492306",
"). c #FE994A",
"_. c #F29149",
"`. c #EC9D62",
"'. c #D28C58",
"]. c #1A120C",
"[. c #F0C19C",
"{. c #DFB799",
"}. c #695648",
"|. c #BBA18D",
" X c #A34608",
".X c #2D1606",
"XX c #E47C36",
"oX c #F6873B",
"OX c #F78D42",
"+X c #E68542",
"@X c #F39551",
"#X c #FAA96E",
"$X c #D7A887",
"%X c #55463C",
"&X c #231D19",
"*X c #EA6815",
"=X c #D45D14",
"-X c #210F04",
";X c #F57929",
":X c #E87227",
">X c #C76022",
",X c #D46827",
"<X c #E1702B",
"1X c #F07C30",
"2X c #C6672A",
"3X c #4A2A16",
"4X c #FBBB94",
"5X c #B55520",
"6X c #9F5124",
"7X c #CC6B32",
"8X c #D47842",
"9X c #A96944",
"0X c #7D533B",
"qX c #82766F",
"wX c #652F13",
"eX c #A85528",
"rX c #B66338",
"tX c #A25933",
"yX c #8D4E2E",
"uX c #673A22",
"iX c #75432A",
"pX c #341F14",
"aX c #563524",
"sX c #F4B08C",
"dX c #EAA886",
"fX c #795948",
"gX c #2F231D",
"hX c #4B3C34",
"jX c #352B26",
"kX c #98451D",
"lX c #BC8469",
"zX c #422E25",
"xX c #DF9D7F",
"cX c #AC7C66",
"vX c #976E5C",
"bX c #684030",
"nX c #714837",
"mX c #B9795F",
"MX c #CD8F75",
"NX c #875F4E",
"BX c #63473C",
"VX c #946756",
"CX c #5C4238",
"ZX c #6F4E43",
"AX c #A47062",
"SX c #815A4F",
"DX c #654B44",
"FX c #A77F75",
"GX c #DECFCB",
"HX c #453330",
"JX c #0A0201",
"KX c #533936",
"LX c #8A8180",
"PX c #D0B7B5",
"IX c #040000",
"UX c None",
/* pixels */
"X X X X X X X X X X X X X X X X X X X X X X X X X X X X X X X X X X X X X X X X X X X v A A v X X X X X X X X X X X X X X X X X ",
"X X X X X X X X X X X X X X X X X X X X X X X X X X X X X X X X X X X X X X X X X X c b m m b c X X X X X X X X X X X X X X X X ",
"X X X X X X X X X X X X X X X X X X X X X X X X X R | ..................o.R X X X c Z n I I n Z c X X X X X X X X X X X X X X X ",
"X X X X X X X X X X X X X X X X X X X X X X X X X w.H.W.R.R.P.I.'.I.P.R.E.i.^ X v b n Y K K Y n b v X X X X X X X X X X X X X X ",
"X X X X X X X X X X X X X X X X X X X X X X X R w.6X,X1XOXoXoXoXoXOXoX;X`.^.y.| A m I K H H K I m A X X X X X X X X X X X X X X ",
"X X X X X X X X X X X X X X X X X X X X X X X w.E.8X@X).).).).oX<XoXQ.#XS.C.I.i.^ m I K H H K I m A X X X X X X X X X X X X X X ",
"X X X X X X X X X X X X X X X X X X X X X v w.eX,X[./.Q.).).Q.oX:X*X`.M.S.@X_.W.i.R n Y K K Y n b v X X X X X X X X X X X X X X ",
"X X X X X X X X X X X X X X X X X X X X X X h.6X,X[.M.Y.4X~.S.#X;X*X@X/.dX*X).'.0X| Z n I I n Z c X X X X X X X X X X X X X X X ",
"X X X X X X X X X X X X X X X X X X X X X X e.iXeX+XJ.N.M.v.. [.<X=XXXQ._.:X).I.CX/ c b m m b c X X X X X X X X X X X X X X X X ",
"X X X X X X X X X X X X X X X X X X X X X X e.bX6XXXQ.#X4XS.N.!.yXiXtX_.oX:XoXrXhX/ X v A A v X X X X X X X X X X X X X X X X X ",
"X X X X X X X X X X X X X X X X X X X X X l e.nXeX+XOX<X1XOX+X9XDXDXVX).oX:X;X2X0X%.P X X X X X X X X X X X X X X X X X X X X X ",
"X X X X X X X X X X X X X X X X X X X X X X e.nX6X<X<X5X>X:XyXZXAX^.MXXX:X:X:X:X,X0X/ X X X X X X X X X X X X X X X X X X X X X ",
"X X X X X X X X X X X X X X X X X X X X X X e.CXiX,X>X(.T.>X0XvXMXdXmXwX X;X:X2XE.h.~ X X X X X X X X X X X X X X X X X X X X X ",
"X X X X X X X X X X X X o o X X X X X X X X e.%XDX7X5X&XaXrXmXMXdXxXVX$ uX,X6XiXBX` j o X X X X X X X X X X X X X X X X X X X X ",
"X X X X X X X X X X X o d d o X X X X X X X e.ZXvXrXrX8 LXmXMXdXdXMXFX8 qXiX.X&X%X~ d d o X X X X X X X X X X X X X X X X X X X ",
"X X X X X X X X X X o Q } } Q o X X X X X o e.NXMXyXVX7 * bXlX4XsXNXO 6 * BX&X].jX/ } } Q o X X X X X X X X X X X X X X X X X X ",
"X X X X X X X X X o d } *.*.} d o X X X X X %.fXAXnXqX. 8 U.lX4XxX3Xw 5 PXAXZXgXE Y =.:.} d o X X X X X X X X X X X X X X X X X ",
"X X X X X X X X X o i  .9.9. .i j o X X X X b %.HXnX|.v.s.A.C.{.NXfXV.K.{.mXSXp.C O.8.9. .i o X X X X X X X X X X X X X X X X X ",
"X X X X X X X X X o i  .3.3. .i i d o X X X X H a zXcXK.N.S.M.s.# ^.S.S.$XVXCX5.&.8.q.4. .i o X X X X X X X X X X X X X X X X X ",
"X X X X X X X X X o i  .1.1. .j ] } Q o X X X X N _ HXcXdX4XGX6 * |.xXsXlXKX&X-.6.q.6.&.' g X X X X X X X X X X X X X X X X X X ",
"X X X X X X X X X o i  .1.1.] ) =.*.} d o X X b J _ gXzX0XFXPXGXPXFX0X0Xb.@.0.7.q.6.#.[ T c X X X X X X X X X X X X X X X X X X ",
"X X X X X X X X X o i  .3.1.' ] 2.9. .i o X X n L gXgXJX].aXAXlXAXDX&X  5.[ <.2.6.>.[ y k A X X X X X X X X X X X X X X X X X X ",
"X X X X X X X X X o i  .9.2.] ' 1.3. .i o X X P / 5.].gX].D.U.KXnXpX    jXe.[ [ #.[ M n b v X X X X X X X X X X X X X X X X X X ",
"X X X X X X X X X o d } *.=.) ] 1.3. .i o X X l / t.# LX2 w jXuXSXO 0 L.O qXz J y p n Z c X X X X X X X X X X X X X X X X X X X ",
"X X X X X X X X X X o Q } ] j  .9.9. .i o X X t t.m.9 5 5 5 $XxXxXPX* CXLX* e L M m b c X X X X X X X X X X X X X X X X X X X X ",
"X X X X X X X X X X X o d i i } *.*.} d T ` r = * m.* - 1 . v.M.M.. GX}.%Xq L.G A A v X X X X X X X X X X X X X X X X X X X X X ",
"X X X X X X X X X X X X o o o Q } } Q P w.qX= , 8 BX@ = : 9 9 9 9 9 6 # +     G v X X X X X X X X X X X X X X X X X X X X X X X ",
"o o X X X X X X X X X X X X X o d d T %.A.{.4 = $ IX% = - 3 3 3 3 3 , = ;     G X X X X X X X X X X X X X X X X X X X X X X X X ",
"i s o X X X X X X X X X X X X X o P w.A.^.A.2 ; G L a ; = 3 4 4 4 3 - ; %     G X X X X X X X X X X X X X X X X X X X X X X X X ",
" .} U j X X X X X X X X X X X X X { fX[.$XDXL.a b v F W 2 7 6 6 6 9 * w       G X X X X X X X X X X X X X X X X X X X X X X o o ",
"9.=.) u j X X X X X X X X X X X X G hXdX~.^.aX5.X X [ ( 2 7 6 7 v.. 9 * w     a X X X X X X X X X X X X X X X X X X X X X o s i ",
"2.,.O.' U o X X X X X X X X X X X V 5.fX$XS.|.y.%.` @.W > : 3 < 1 9 1 < = % & E F b X X X X X X X X X X X X X X X X X X o Q }  .",
") X.,.,.} d o X X X X X X X X X X X D E 0XsXM.m.}.DXhXD.; - , 4 4 4 , - = = %   E N X X X X X X X X X X X X X X X X X o d } *.9.",
") X.,.,.} d o X X X X X X X X X X X j V 5.ZX{./.m.!.VXjXKXAX^.g.g.g.^.VXAXAXKXZ.x V X X X X X X X X X X X X X X X X X o d } *.9.",
"2.,.O.' U o X X X X X X X X X X X X X X C _ 0X{.M.[.mX0XE.n.l.d.d.d.l.n.B.G.9XHX  K X X X X X X X X X X X X X X X X X X o Q }  .",
"9.=.) u j X X X X X X X X X X X X X X X X V E fX4XFX0XP.n.l.d.d.d.d.d.l.n.G.lXDX  [ X X X X X X X X X X X X X X X X X X X o s i ",
" .} U j X X X X X X X X X X X X X X X X X n _ zXvXHX3XF.x.a.z.z.z.z.f.f.x.F.0XKXKXe.~ X X X X X X X X X X X X X X X X X X X o o ",
"i s o X X X X X X X X X X X X X X X X X X b J 5.b.L.-XF.x.a.a.f.f.f.a.a.x.F.-XjXMXVX%.X X X X X X X X X X X X X X X X X X X X X ",
"o o X X X X X X X X X X X X X X X X X X X X S M / a .XF.x.a.a.f.f.f.a.a.x.F.Z.hXY.^.y.X X X X X X X X X X X X X X X X X X X X X ",
"X X X X X X X X X X X X X X X X X X X X X X X X l G Z.T.k.k.k.k.j.j.k.k.k.T.JXp.!.^.y.X X X X X X X X X X X X X X X X X X X X X ",
"X X X X X X X X X X X X X X X X X X X v A A v X X J ;.Z.].U.U.].Z.Z.U.U.].Z.x L.BXvXy.Z X X X X X X X X X X X X X X X X X X X X ",
"X X X X X X X X X X X X X X X X X X c b m m b c X m z &XKXSXNXHX  gXZXSX%X&XL a L.o.Z j X X X X X X X X X X X X X X X X X X X X ",
"X X X X X X X X X X X X X X X X X c Z n I I n Z c X N c.cX4X~.vX].ZXxXsXcXhXY B J ~ X X X X X X X X X X X X X X X X X X X X X X ",
"X X X X X X X X X X X X X X X X v b n Y K K Y n b v T e.cX4XS.^.HXSXxXsXcXc.T X b X X X X X X X X X X X X X X X X X X X X X X X ",
"X X X X X X X X X X X X X X X X A m I K H H K I m A X ` y.xXS.!.BXBXAXdXcXc.P X X X X X X X X X X X X X X X X X X X X X X X X X ",
"X X X X X X X X X X X X X X X X A m I K H H K I m A X o w.cXY.!.CXzXSXxXcXc.R X X X X X X X X X X X o o X X X X X X X X X X X X ",
"X X X X X X X X X X X X X X X X v b n Y K K Y n b v X g %.fX[.$XCXjXfXxXcXc.P X X X X X X X X X X o d d o X X X X X X X X X X X ",
"X X X X X X X X X X X X X X X X X c Z n I I n Z c X X ~ t.A.Y.!.CXzXSXdXvXjXT X X X X X X X o o o Q } } Q o X X X X X X X X X X ",
"X X X X X X X X X X X X X X X X X X c b m m b c X X X e.V.~.4XcX%XHXNXdXNX( M X X X X X X o d i i } *.*.} d o X X X X X X X X X ",
"X X X X X X X X X X X X X X X X X X X v A A v X X X R c.|.M.^.}.%.c.NXsXNX( M X X X X X o Q } ] j  .9.9. .i o X X X X X X X X X ",
"X X X X X X X X X X X X X X X X X X X X X X X X X X S p.V.{.}.$.Z $.DXMXZX( M X X X X o d } *.=.) ] 1.3. .i o X X X X X X X X X ",
"X X X X X X X X X X X X X X X X X X X X X X X X X X k h iX9XpXa b G &XZXzX( M X X X X o i  .9.2.] ' 1.3. .i o X X X X X X X X X ",
"X X X X X X X X X X X X X X X X X X X X X X X X X X M ( wXkX.XG X G Z.HXgX( N X X X X o i  .3.1.' ] 2.9. .i o X X X X X X X X X ",
"X X X X X X X X X X X X X X X X X X X X X X X X X X F ( aXkXU.L X L ].CXzXh F X X X X o i  .3.1.] ) =.*.} d o X X X X X X X X X ",
"X X X X X X X X X X X X X X X X X X X X X X X X X F _ jXBXbX].L X L -XyX0XjX_ F X X X o i  .9.9. .j ] } Q o X X X X X X X X X X ",
"X X X X X X X X X X X X X X X X X X X X X X X X C 5.3XnX0XbX].L X z .XeXtXhX$ _ F V H o d } *.*.} i i d o X X X X X X X X X X X ",
"X X X X X X X X X X X X X X X X X X X X X X X D _ wXeXeXeXyX-XL X J U.kXyXBXBXzXZ.( L X o Q } } Q o o o X X X X X X X X X X X X ",
"X X X X X X X X X X X X X X X X X X X X X X D 5.wXkX5XeXtXbX].G v S J pXuXtXW.E.wX-X_ b X o d d o X X X X X X X X X X X X X X X ",
"X X X X X X X X X X X X X X X X X X X X X S a (.2X'.lXeXyXhXZ.L X X k L 3XtXP.P.yXpX_ b X X o o X X X X X X X X X X X X X X X X ",
"X X X X X X X X X X X X X X X X X X X X X X G (.G.S.GXrXiXhXL.J X X X n @.nXnX0XnXgXG b X X X X X X X X X X X X X X X X X X X X ",
"X X X X X X X X X X X X X X X X X X X X X o f r.H.V.LX0XuX&XL f o X X X n ` / ` ` K B X X X X X X X X X X X X X X X X X X X X X ",
"X X X X X X X X X X X X X X X X X X X X X o d | w.5._ %Xp.-.| d o X X X X X X X X X X X X X X X X X X X X X X X X X X X X X X X ",
"X X X X X X X X X X X X X X X X X X X X X X b R ) +.<.=.+.) U o X X X X X X X X X X X X X X X X X X X X X X X X X X X X X X X X ",
"X X X X X X X X X X X X X X X X X X X X X X X j u } 2.2.} u j X X X X X X X X X X X X X X X X X X X X X X X X X X X X X X X X X "
};
