/* XPM */
static char *_644ec435f3a4c37bde65e11a8f5b7fetmPaqTbgb5LJP4MU[] = {
/* columns rows colors chars-per-pixel */
"64 64 256 2 ",
"   c black",
".  c white",
"X  c #3F824F",
"o  c #3E814F",
"O  c #009B45",
"+  c #00A849",
"@  c #003416",
"#  c #001E0D",
"$  c #2C6444",
"%  c #04F865",
"&  c #00200C",
"*  c #066D2E",
"=  c #075927",
"-  c #00F95A",
";  c #004F1C",
":  c #018C34",
">  c #07ED58",
",  c #045B22",
"<  c #377C50",
"1  c #00D447",
"2  c #00EA48",
"3  c #1AE859",
"4  c #3B8050",
"5  c #3B7F50",
"6  c #00FB48",
"7  c #00D537",
"8  c #3D814F",
"9  c #3B7B4C",
"0  c #00E538",
"q  c #00B32C",
"w  c #004010",
"e  c #3F8350",
"r  c #3F834F",
"t  c #3E814E",
"y  c #3D7E4D",
"u  c #3C7C4C",
"i  c #418651",
"p  c #408450",
"a  c #3C7A4B",
"s  c #3A7648",
"d  c #346941",
"f  c #356A42",
"g  c #3E7D4B",
"h  c #41834F",
"j  c #00D528",
"k  c #01C928",
"l  c #42844E",
"z  c #006912",
"x  c #43834E",
"c  c #007511",
"v  c #004A0B",
"b  c #44854E",
"n  c #45864E",
"m  c #46874E",
"M  c #46844E",
"N  c #3A6D40",
"B  c #00A90F",
"V  c #46874D",
"C  c #47884D",
"Z  c #133816",
"A  c #48894D",
"S  c #009308",
"D  c #003B01",
"F  c #4C864D",
"G  c #005900",
"H  c #004901",
"J  c #002900",
"K  c #001E00",
"L  c #000E00",
"P  c #016502",
"I  c #027703",
"U  c #45CA46",
"Y  c #266226",
"T  c #4B8B4C",
"R  c #4C8B4C",
"E  c #013200",
"W  c #2ABB28",
"Q  c #4E8D4C",
"!  c #0E200D",
"~  c #093F05",
"^  c #265322",
"/  c #51904B",
"(  c #0A3202",
")  c #55884B",
"_  c #135804",
"`  c #010500",
"'  c #134207",
"]  c #4B7C3D",
"[  c #5D9A48",
"{  c #5D9948",
"}  c #589145",
"|  c #5F9B47",
" . c #5E9A48",
".. c #619D47",
"X. c #619B47",
"o. c #5E9049",
"O. c #64A046",
"+. c #66A145",
"@. c #65A045",
"#. c #649F46",
"$. c #608F48",
"%. c #659E42",
"&. c #67A245",
"*. c #6EAA44",
"=. c #6CA344",
"-. c #0B1403",
";. c #569915",
":. c #2C4A0F",
">. c #1A260A",
",. c #333A07",
"<. c #212409",
"1. c #171907",
"2. c #2E310E",
"3. c #969D29",
"4. c #010100",
"5. c #8C8300",
"6. c #5D5812",
"7. c #312E0F",
"8. c #3C3711",
"9. c #706721",
"0. c #FFD300",
"q. c #494014",
"w. c #FFCF00",
"e. c #54450A",
"r. c #070602",
"t. c #FFE67C",
"y. c #FFC900",
"u. c #FFCB00",
"i. c #FFC700",
"p. c #FDC500",
"a. c #8D6F01",
"s. c #FFC703",
"d. c #FFC707",
"f. c #FFCB09",
"g. c #FFC100",
"h. c #FFC500",
"j. c #FFC300",
"k. c #FFC205",
"l. c #FFC60E",
"z. c #FFC611",
"x. c #FFC816",
"c. c #FFCA1A",
"v. c #FFC71D",
"b. c #FFC924",
"n. c #FFD551",
"m. c #FFDB69",
"M. c #FFDE78",
"N. c #FFE183",
"B. c #FFBF00",
"V. c #FEBC00",
"C. c #FDBD00",
"Z. c #907322",
"A. c #FFE392",
"S. c #FFE8A5",
"D. c #FFF0C8",
"F. c #FEB800",
"G. c #6E5618",
"H. c #3A2D0D",
"J. c #34290C",
"K. c #FDB000",
"L. c #DD9700",
"P. c #372808",
"I. c #5D4615",
"U. c #31250B",
"Y. c #FFF7E6",
"T. c #FDA900",
"R. c #F9A600",
"E. c #3F2A00",
"W. c #BC830C",
"Q. c #47340C",
"!. c #F99F00",
"~. c #F9A200",
"^. c #F7A000",
"/. c #241A07",
"(. c #FFA000",
"). c #FD9D00",
"_. c #FA9D00",
"`. c #F99D00",
"'. c #F89900",
"]. c #F89A00",
"[. c #F79C00",
"{. c #E89206",
"}. c #FAA617",
"|. c #FF9600",
" X c #F89500",
".X c #F69100",
"XX c #130D04",
"oX c #FF9000",
"OX c #FB9100",
"+X c #F68D00",
"@X c #FF8A00",
"#X c #F58900",
"$X c #F48400",
"%X c #442A0B",
"&X c #543713",
"*X c #FC8300",
"=X c #F17D00",
"-X c #3F2303",
";X c #58350D",
":X c #F37800",
">X c #F37A00",
",X c #EA7700",
"<X c #F47D01",
"1X c #030201",
"2X c #FE7C00",
"3X c #F27600",
"4X c #B85700",
"5X c #884200",
"6X c #FE7600",
"7X c #F67300",
"8X c #F27000",
"9X c #FF6C00",
"0X c #F26700",
"qX c #F16B00",
"wX c #F66700",
"eX c #EF6300",
"rX c #EE5F00",
"tX c #D55900",
"yX c #FE6100",
"uX c #F86100",
"iX c #F26000",
"pX c #EE5B00",
"aX c #B74700",
"sX c #ED5500",
"dX c #A33A00",
"fX c #F75B01",
"gX c #311606",
"hX c #FE5600",
"jX c #F55200",
"kX c #1D0A00",
"lX c #7A2A01",
"zX c #210C01",
"xX c #541E03",
"cX c #FC5000",
"vX c #E54100",
"bX c #8D2A00",
"nX c #FD4200",
"mX c #A92B00",
"MX c #401000",
"NX c #CC2A00",
"BX c #FA2900",
"VX c #4F0D02",
"CX c #E31100",
"ZX c #6F0801",
"AX c #AC0700",
"SX c #900600",
"DX c #460300",
"FX c #1E0100",
"GX c #C40200",
"HX c #3C0000",
"JX c #290000",
"KX c #160000",
"LX c #0D0000",
"PX c #040000",
"IX c #220101",
"UX c None",
/* pixels */
"X X X X X X X X X X X X X X X X X X X X X X X X X X X X X X X X X X X X X X X X X X X r p p r X X X X X X X X X X X X X X X X X ",
"X X X X X X X X X X X X X X X X X X X X X X X X X X X X X X X X X X X X X X X X X X e t u u t e X X X X X X X X X X X X X X X X ",
"X X X X X X X X X X X X X X X X X X X X X X X X X X X X X X X X X X X X X X X X X e i y f f y i e X X X X X X X X X X X X X X X ",
"X X X X X X X X X X X X X X X X X X X X X X X X X X X X X X X X X X X X X X X X r t y s d d s y t r X X X X X X X X X X X X X X ",
"X X X X X X X X X X X X X X X X X X X X X X X X X X X X X X X X X X X X X X X X p u f d a a d f u p X X X X X X X X X X X X X X ",
"X X X X X X X X X X X X X X X X X X X X X X X X X X X X X X X X X X X X X X X X p u f d a a d f u p X X X X X X X X X X X X X X ",
"X X X X X X X X X X X X X X X X X X X X X X X X X X X X X X X X X X X X X X X X r t y s d d s y t r X X X X X X X X X X X X X X ",
"X X X X X X X X X X X X X X X X X X X X X X X X X X X X X X X X X X X X X X X X X e i y f f y i e X X X X X X X X X X X X X X X ",
"X X X X X X X X X X X X X X X X X X X X X X X X X X X X X X X X X X X X X X X X X X e t u u t e X X X X X X X X X X X X X X X X ",
"X X X X X X X X X X X X X X X X X X X X X X X X X X X X X X X X X X o o X X X X X X X r p p r X X X X X X X X X X X X X X X X X ",
"X X X X X X X X X X X X X X X X X X X X X X X X X X X X X X X X X o 5 5 o X X X X X X X X X X X X X X X X X X X X X X X X X X X ",
"X X X X X X X X X X X X X X X X X X X X q.1.<.X X X X X X X X X o l A A h 8 X X >.! ! <.X X X X X X X X X X X X X X X X X X X X ",
"X X X X X X X X X X X X X X X X X X ;Xq.: : G ,.&XI.X X X X X o 5 A  .{ n < &X^ O O O : :.e X X X X X X X X X X X X X X X X X X ",
"X X X X X X X X X X X X o o X X X ^ w D q 6 k P E E G.X X X X o 5 T +.&.6.K J z 7 2 - % : :.o X X X X X X X X X X X X X X X X X ",
"X X X X X X X X X X X o 5 5 o X Z O 7 B B 7 1 B S I ( I.X X t >.XXXXXXXX~ S B B B B j % % : >.X X X X X X X X X X X X X X X X X ",
"X X X X X X X X X X o l A A l ^ : j 0 6 2 q , w D D G _ q.I.:.G K       ; 2 6 2 0 1 k k - 1 P X X X X X X X X X X X X X X X X X ",
"X X X X X X X X X o 5 A [ [ gX* - B c + + * %XQ.Q.8.P D 4.  E G J L J J ; O + 1 2 6 0 k 0 0 k ;.x X X X X X X X X X X X X X X X ",
"X X X X X X X X X o 5 T &.&.gX* 1 = -.! ! I.e X X t q.-.r.  ` K ` K G P H & & v S B q 1 q k 1 = ;XX X X X X X X X X X X X X X X ",
"X X X X X X X X X o 5 T @.O.U.# ; 9.r 8 e e X X X r r r X gXK H K L J P P D D E J J w ; D : > = -XX X X X X X X X X X X X X X X ",
"X X X X X X X X X o 5 T O.O.G.%X&XV r o X X X X X X X X X ,.P S E ` K D H H H ' %.*.%.} V Y : @ %XX X X X X X X X X X X X X X X ",
"X X X X X X X X X o 5 T O.#.V l { [ A 5 o X X X X /././.>.I B S E D I H L -.-.q.*.%.] N g r ! -.o X X X X X X X X X X X X X X X ",
"X X X X X X X X X o 5 T @.O.V C +.&.T 5 o X q.q.;XbXbXE.P k j S P S 7 S :.bXmXlXq.I.N $ 9 p X o X X X X X X X X X X X X X X X X ",
"X X X X X X X X X o 5 T &.+.C V O.@.T 5 X I.gXE.5XuX*XW.;.> - k k 2 % W 5.*X@X4XMX-Xe.Z.t r X X X X X X X X X X X X X X X X X X ",
"X X X X X X X X X o 5 A [ { b C O.@.T 5 o xXtXL.{.6X(.'.W.U % > > % 3 3.$XF.p. XtXL.a.P.Z.X X X X X X X X X X X X X X X X X X X ",
"X X X X X X X X X X o l A C 8 T &.&.T 5 xX4XT.w.j.^.+X9XfXW.3.3.3.3.3.{.T.y.w.V.K.u.L.lX%X9.h X X X X ) X X X X X X X X X X X X ",
"X X X X X X X X X X X o 5 5 5 A [ [ A xXaXoXh.u.u.B..X:X3XiXcXjXjXhX6XK.u.h.g.h.y.i.K.,XlX%XZ.h X X X F X X X X X X X X X X X X ",
"X X X X X X X X X X X X o o o l A C xXaXuXoXh.u.h.j.V.C.K.2XfXfXfX2XK.i.i.j.g.h.i.d.f.F.,XlXU.X X X X F X X X X X X X X X X X X ",
"o o X X X X X X X X X X X X X o 5 >.MXuXoXK.j.i.g.h.y.w.i.R.'.].].K.y.y.g.B.g.B.k.M.t.l.*XbX1XX X X X M X X X X X X X X X X X X ",
"5 4 o X X X X X X X X X X X X X o xXlX=XV.u.h.j.j.j.j.j.j.i.y.i.h.h.g.B.c.n.l.l.n.S.N.l.|.dXVXG.o X X x X X X X X X X X X X X X ",
"T A h 8 X X X X X X X X X X X X gXSXvXF.w.i.j.j.j.j.j.j.j.i.i.s.f.d.g.k.m.S.n.n.D.M.b.s.i.:XGXVXq.p X h X X X X X X X X X X o o ",
"&.{ n < 8 X X X X X X X X X X X KXAXcXh.0.g.j.j.j.j.j.j.j.j.g.x.N.m.z.m.S.M.N.D.. D.m.f.0.2XCXHX2.X X h X X X X X X X X X o 4 5 ",
"+.| / m h o X X X X X X X X X X IXAXyXB.w.j.j.j.j.j.j.j.j.j.g.x.A.S.m.A.N.n.D.. . D.m.f.w.oXCXDX8.X X X X X X X X X X X o l A T ",
"b Q ..| A 5 o X X X X X X X X X zXdX@Xg.u.j.j.j.j.j.j.j.j.j.g.k.v.M.D.m.n.D.. . Y.M.b.s.i.(.tXMX8.X X h X X X X X X X o 5 A [ &.",
"b Q ..| A 5 o X X X X X X X X X zXdX|.g.y.j.j.j.j.j.j.j.j.j.j.g.B.b.M.A.N.A.Y.D.N.N.m.l.'.2XtXMX8.X X h X X X X X X X o 5 A [ &.",
"+.| / m h o X X X X X X X X X X zXdXoXj.w.i.j.j.j.j.j.j.j.j.j.j.j.B.l.A.M.c.t.M.c.N.N.}.$X6XtXMX8.X X l X X X X X X X X o l A T ",
"&.{ n < 8 X X X X X X X X X X X zXdXoXj.i.g.j.h.h.h.j.j.j.j.j.j.j.g.g.c.x.g.z.l.i.c.}.<X].(.tXMX8.X X M X X X X X X X X X o 4 5 ",
"T A h 8 X X X X X X X X X X X X zXdX).B.]. Xg.w.y.y.h.g.j.j.j.j.j.j.g.g.h.V.+X'.B.].$X'.'.@XtXMX8.X X F X X X X X X X X X X o o ",
"5 4 o X X X X X X X X X X X X X KXmX2X).#X Xg.F.~.R.B.y.h.i.i.h.i.i.h.i.u.V..X#X].#X.XR.=XhXvXMX7.X X ) X X X X X X X X X X X X ",
"o o X X X X X X X X X X X X X X IXAXBX7XR.p.F.$XeX3XT.i.h.g.j.h.g.g.h.g.j.h.F..X>X].!.3XeXnXCXDX8.X X ) X X X X X X X X X X X X ",
"X X X X X X X X X X X X X X X X x xXSXqXC.g.#XrX8X.X#X~.B.!.R.V.'.!.V.].`.g.~.+X'. X:XiXwXaXZXI.r X X F X X X X X X X X X X X X ",
"X X X X X X X X X X X X X X X X X x VXjX). XpXsX$XR.+X.X`.3X:X!.+X+X~.+X#X`.#X+X~.+X3XwXhXbXkXo o X X F X X X X X X X X X X X X ",
"X X X X X X X X X X X X X X X X X X DXCXhX8XeXrXeX>X~.`.8XpXpX3X~.'.>X].'.<X`.].$X!.!.yXBXSXXXo X X X F X X X X X X X X X X X X ",
"X X X X X X X X X X X X X X X X X e JXZXCXyX_.=XsXrX<X>XpXsXsXrX$X<XeX<X'.'. X X[.^.6XBXAXHXXXX X X X F X X X X X X X X X X X X ",
"X X X X X X X X X X X X X X X X r t   PXSXvX@X2XuXqX=X3X0X3X3XeXpXrXrXpX$XR.=X*XT.9XBXAXJX  r.G.X X X F X X X X X X X X X X X X ",
"X X X X X X X X X X X X X X X X 1.r.    LXZXBXjXrXqX).OX7X_.).0XpXiXiXiX0X8XiXqXwXBXAXJXPX    XXI.X X ) X X X X X X X X X X X X ",
"X X X X X X X X X X X X X X X X           FXZXZXmXBXcXyX9XoX@X9XyX9X9X9XcXBXBXNXlXZXHX          U.X o ) X X X X X X X X X X X X ",
"X X X X X X X X X X X X X X X X U.1X          ` DXAXGXAXaXaXaXaXaXaXaXaXmXGXGXZX              /.G.o 5 ) o X X X X X X X X X X X ",
"X X X X X X X X X X X X X X X X X J.1X1X1X      PXFXIXIXkXkXkXkXkXkXkXkXIXIXFXLX      1X1X1XXX8 o l A $.l o X X X X X X X X X X ",
"X X X X X X X X X X X X X X X X X X e t u Q.                          4.            /.X X o 5 5 5 A [ X.A 5 o X X X X X X X X X ",
"X X X X X X X X X X X X X X X X X X X r p p H.J.J.J.J.J.J.J.J.J.J.J.J.J.J.J.J.J.J.J.X X o l A C 8 T &.&.T 5 o X X X X X X X X X ",
"X X X X X X X X X X X X X X X X X X X X X X X X X X X X X X X X X X X X X X X X X X X o 5 A [ { m C O.@.T 5 o X X X X X X X X X ",
"X X X X X X X X X X X X X X X X X X X X X X X X X X X X X X X X X X X X X X X X X X X o 5 T &.+.C V O.@.T 5 o X X X X X X X X X ",
"X X X X X X X X X X X X X X X X X X X X X X X X X X X X X X X X X X X X X X X X X X X o 5 o.=.O.V C +.&.T 5 o X X X X X X X X X ",
"X X X X X X X X X X X X X X X X X X X X X X X X X X X X X X X X X X X X X X X X X X X o 5 T @.O.C b { [ A 5 o X X X X X X X X X ",
"X X X X X X X X X X X X X X X X X X X X X X X X X X X X X X X X X X X X X X X X X X X o 5 T &.&.T 8 C A l o X X X X X X X X X X ",
"X X X X X X X X X X X X X X X X X X X X X X X X X X o o X X X X X X X X X X X X X X X o 5 A [ [ A 5 5 5 o X X X X X X X X X X X ",
"X X X X X X X X X X X X X X X X X X X X X X X X X o 5 5 o X X X X X X X X X X X X X X X o l A A l o o o X X X X X X X X X X X X ",
"X X X X X X X X X X X X X X X X X X X X X X X X 8 h A A h 8 X X X X X X X X X X X X X X X o 5 5 o X X X X X X X X X X X X X X X ",
"X X X X X X X X X X X X X X X X X X X X X X X 8 < m | | m < 8 X X X X X X X X X X X X X X X o o X X X X X X X X X X X X X X X X ",
"X X X X X X X X X X X X X X X X X X X X X X o h m / ..../ m h o X X X X X X X X X X X X X X X X X X X X X X X X X X X X X X X X ",
"X X X X X X X X X X X X X X X X X X X X X o 5 A | ..R R ..| A 5 o X X X X X X X X X X X X X X X X X X X X X X X X X X X X X X X ",
"X X X X X X X X X X X X X X X X X X X X X o 5 A | ..T T ..| A 5 o X X X X X X X X X X X X X X X X X X X X X X X X X X X X X X X ",
"X X X X X X X X X X X X X X X X X X X X X X o h m /  . ./ m h o X X X X X X X X X X X X X X X X X X X X X X X X X X X X X X X X ",
"h X X X X X X X X X X X X X X X X X X X X X X 8 < A +.+.A < 8 X X X X X X X X X X X X X X X X X X X X X X X X X X X X X X X X h "
};
