/* XPM */
static char *_af2fa3cfe4b404ceef7d53a19dd1036hJ5wYMUqgcPn4cQv[] = {
/* columns rows colors chars-per-pixel */
"64 64 256 2 ",
"   c black",
".  c white",
"X  c #4D5D46",
"o  c #4E5E47",
"O  c #4D5C46",
"+  c #273C3A",
"@  c #283C39",
"#  c #2A3D39",
"$  c #293F3A",
"%  c #293E39",
"&  c #2A3F3A",
"*  c #2B3E39",
"=  c #2B413A",
"-  c #2C413A",
";  c #2C4039",
":  c #2D3F39",
">  c #2D423A",
",  c #2F413A",
"<  c #2E423A",
"1  c #2D4239",
"2  c #2F4139",
"3  c #2F443A",
"4  c #30433A",
"5  c #304139",
"6  c #2F4339",
"7  c #30443A",
"8  c #34463D",
"9  c #304339",
"0  c #32433A",
"q  c #31473B",
"w  c #304439",
"e  c #31483B",
"r  c #32493C",
"t  c #32453A",
"y  c #32483B",
"u  c #334B3C",
"i  c #33463A",
"p  c #34443A",
"a  c #364A3D",
"s  c #324338",
"d  c #334B3B",
"f  c #344C3C",
"g  c #334539",
"h  c #334639",
"j  c #344439",
"k  c #344C3B",
"l  c #344639",
"z  c #35473A",
"x  c #344E3B",
"c  c #354F3C",
"v  c #35483A",
"b  c #36473A",
"n  c #354839",
"m  c #36483A",
"M  c #3B4D3F",
"N  c #37523C",
"B  c #364839",
"V  c #38543C",
"C  c #38473A",
"Z  c #374639",
"A  c #374539",
"S  c #38493A",
"D  c #3F5141",
"F  c #38543B",
"G  c #3F5C42",
"H  c #3A513C",
"J  c #3F5D41",
"K  c #3F5B41",
"L  c #39523B",
"P  c #384939",
"I  c #394A3A",
"U  c #435444",
"Y  c #405E41",
"T  c #3D593E",
"R  c #3C563C",
"E  c #3A4B3A",
"W  c #394A39",
"Q  c #384738",
"!  c #394739",
"~  c #435243",
"^  c #436242",
"/  c #436142",
"(  c #3B4F3A",
")  c #446542",
"_  c #3A4839",
"`  c #3B493A",
"'  c #456742",
"]  c #41523F",
"[  c #3E4E3C",
"{  c #3B4A39",
"}  c #455643",
"|  c #40593C",
" . c #404E3E",
".. c #476941",
"X. c #41563D",
"o. c #3D4C3A",
"O. c #496E41",
"+. c #4D6D46",
"@. c #495A45",
"#. c #3D4B3A",
"$. c #486D3E",
"%. c #476B3E",
"&. c #45643D",
"*. c #507347",
"=. c #4F7146",
"-. c #4E6E46",
";. c #4F6D47",
":. c #4F6948",
">. c #3E4D3A",
",. c #3D4C39",
"<. c #41503D",
"1. c #4C7240",
"2. c #527547",
"3. c #517147",
"4. c #506F47",
"5. c #4D6A44",
"6. c #4F6947",
"7. c #4E6747",
"8. c #4D6047",
"9. c #3D4B39",
"0. c #495944",
"q. c #4F7940",
"w. c #4D7540",
"e. c #4B703F",
"r. c #537A46",
"t. c #547948",
"y. c #547648",
"u. c #527347",
"i. c #506F45",
"p. c #4D6944",
"a. c #445C3C",
"s. c #516A48",
"d. c #3E4D39",
"f. c #3F4E3A",
"g. c #4B5946",
"h. c #517C40",
"j. c #4F783F",
"k. c #577C48",
"l. c #516D46",
"z. c #526C48",
"x. c #404F3A",
"c. c #3F4E39",
"v. c #4D5F46",
"b. c #3E4B39",
"n. c #4D5D47",
"m. c #517A40",
"M. c #557946",
"N. c #4F6C43",
"B. c #506C44",
"V. c #537047",
"C. c #516B46",
"Z. c #516947",
"A. c #4D6344",
"S. c #4A5D42",
"D. c #4E6046",
"F. c #4B5B44",
"G. c #4F5F48",
"H. c #4C5A46",
"J. c #5C8946",
"K. c #5A8545",
"L. c #5C8748",
"P. c #587F45",
"I. c #537145",
"U. c #516D43",
"Y. c #536F45",
"T. c #546F47",
"R. c #4D6541",
"E. c #536D47",
"W. c #526A47",
"Q. c #506546",
"!. c #43543B",
"~. c #43533B",
"^. c #4F6246",
"/. c #506347",
"(. c #43523C",
"). c #404E39",
"_. c #42503B",
"`. c #4C5C44",
"'. c #43513C",
"]. c #4E5E46",
"[. c #45533E",
"{. c #506048",
"}. c #4A5943",
"|. c #404D3A",
" X c #4E5D47",
".X c #4D5B46",
"XX c #4C5A45",
"oX c #5B8744",
"OX c #577D43",
"+X c #567B42",
"@X c #577944",
"#X c #567546",
"$X c #567347",
"%X c #46583C",
"&X c #485A3E",
"*X c #4F6245",
"=X c #4C5D43",
"-X c #45543D",
";X c #485740",
":X c #4B5A43",
">X c #4C5B44",
",X c #424F3B",
"<X c #505F48",
"1X c #4B5844",
"2X c #4A5743",
"3X c #5E8844",
"4X c #5B8344",
"5X c #5A7D45",
"6X c #597846",
"7X c #4A5E3E",
"8X c #4E5F44",
"9X c #47563E",
"0X c #4A5941",
"qX c #495840",
"wX c #44523C",
"eX c #4C5B43",
"rX c #46543E",
"tX c #45533D",
"yX c #4E5D45",
"uX c #44513C",
"iX c #46533E",
"pX c #4B5744",
"aX c #618F44",
"sX c #5F8C43",
"dX c #5F8A43",
"fX c #597F41",
"gX c #55763F",
"hX c #53723F",
"jX c #5C7C47",
"kX c #5B7B47",
"lX c #5A7946",
"zX c #587645",
"xX c #557142",
"cX c #4C633D",
"vX c #45553B",
"bX c #425039",
"nX c #43513A",
"mX c #4B5A41",
"MX c #44523B",
"NX c #46543D",
"BX c #47553E",
"VX c #48563F",
"CX c #4B5942",
"ZX c #5C7B46",
"AX c #546F40",
"SX c #50683F",
"DX c #526941",
"FX c #4F6043",
"GX c #47553D",
"HX c #445239",
"JX c #44513A",
"KX c #48553E",
"LX c #445139",
"PX c #434F39",
"IX c #46533A",
"UX c None",
/* pixels */
"0 >.7XxX5X5X#Xl.7.7.l.#XzXI.6.7.6.6.C.#XzXSX!.l , 0 >.cXOXJ.J.K.K.J.oX+XcX#.5 2 B (.S.C.#X@XI.C.Y.@X5X@XI.C.6.6.6.6.6.6.V.zXxX7X",
"l >.9X8X/./.^.D.v.v.D.^.^.D.v.v.v.v.D.^.*XmX_.B 6 g >.7Xi.y.y.2.2.y.y.i.7Xo.0 9 P '.0XD.^.^.D.D.D.^.^.^.D.D.v.v.v.v.v.v.^./.=X9X",
"W f.iX2XH.H.H.H.O O H.H.g.H..XO .X.X.X.XXX;X,XB 6 g >.&XA.:.:.7.7.:.:.A.%Xo.0 w P '.0X.X.Xg.H.H.H.g.g.g.H.H..X.X.X.X.X.X.XH.2X[.",
")._.iX1XO O H.O O O O H.H.O O O O O O O XX;X_.B 6 h >.9X`.o o X X o 8.`.9Xo.t w P '.0XO O H..XO O H.H.H.H.O O O O O O O  XO }.rX",
"bXnXrXF.o o X X X X X X X X X X X X X o X qX_.B 6 h >.BXXX X X.X.X XO :XBXo.w 6 P '.0XX o X X X X X X X X X X X X X X X o o eXBX",
"bX_.rXF.o o X X X X X X X X X X X X X o X qX_.B 6 h >.9XXX X XO O  Xn.:XBXo.t w P '.0XX o X X X X X X X X X X X X X X X o o eXBX",
",.x.rXF.o o X X X X X X X X X X X X X o X qX_.z < t >.9X>Xo o X X o o eXrXf.P P ,.'.0XX o X X X X X X X X X X X X X X X o o eXBX",
"B f.BX>Xo o X X X X X X X X X X X X X o X qX_.B 6 h >.9X>Xo o X X o o :X[.x.d.d.c.(.;XX o X X X X X X X X X X X X X X X o o eXBX",
"g >.BX>Xo o X X X X X X X X X X X X X o X qX_.E B P f.9X`.G.G.o o G.G.>XrXx.,.,.d.(.qXX o X X X X X X X X X X X X X X X o o eXBX",
"g >.BX>Xo o X X X X X X X X X X X X X o `.;X'.c.d.d.x.rXF.o o X X o o eXBX>.B z E '.0XX o X X X X X X X X X X X X X X X o o eXBX",
"l >.BX>Xo o X X X X X X X X X X X X X o `.;X'.d.,.c._.NXqX:X:X}.}.:X}.qXNXo.t 6 P '.0XX o X X X X X X X X X X X X X X X o o eXBX",
"l >.BX>Xo o X X X X X X X X X X X X X o X qX_.W z S f.MX-XtXtXtXtXtXtX-XMXo.t 6 P '.0XX o X X X X X X X X X X X X X X X o o eXBX",
"l >.BXO G.o X X X X X o G.G.G.G.G.G.G.{.D.0X'.B 3 t I x.nXnXnXnXnXnXnXMXMX>.i w P '.0XX o X X X X X X X X X X X X X X X o G.`.BX",
"l >.BX>Xo o X X X X X ].o o o o o o o <X].0X'.P < - 7 I x.bXbXbXbXbXbXnXJXo.i w P '.0XX o X X X X X X X X X X X X X X X o o `.BX",
"l >.NX}.`.o o o o o X 0.} } } U ~ ~ ~ U ~  .` 0 * + @ 5 Z ` ` _ _ _ _ ` ` Z 4 w P '.0XX o X X X X X X X X X X X X X X X X `.0XNX",
"z >.MXNX;X`.o o G.o @.D a a a 8 8 8 8 8 8 p 4 : * @ @ * 2 5 5 5 5 5 5 5 5 , - w W (.0XX o X X X X X X X X X X X X X o X F.;XtXMX",
"z f.nXMX-X0X`.O yXyX} a - ; q x N V F F F F V V V V V V V V V V V V V V V c q w P (.0Xo G.o o o o o o o o o o o o o G.o }.-XnXbX",
"b f.LXLXMXNX9XVX;X;X<.z ; 2 ( &.j.h.q.j.j.q.q.m.m.h.h.m.m.q.q.q.q.q.q.h.h.$.V 9 A (.0Xo G.o o o o o o o o o o o o o G.o }.wXPXbX",
"i E >.#.{ 9.9.9.>.>.I t , Z %XhX3XaXsXdXdXdXdXdXdXsXsXdXdXdXdXdXdXdXdXaXaXh.T 2 j uX0X`.O `.`.`.`.`.`.`.`.`.`.`.`.`.O `.}.NXnXx.",
"7 t t 0 5 s s s s g w < 9 P %XDX6XkXlX6X6X6X6X6X6X6X6X6X6X6X6X6X6X6X6XjXZXN.H < Z '.GXVXVXVXVXVXVXVXVXVXVXVXVXVXVXVXVXVX9XMXx.I ",
"< 3 y k x u r r y q < - w W (.mXv.D.v.v.v.v.v.v.v.v.v.v.v.v.v.v.v.v.v.{.{.@.M y S >.x.f.f.>.o.#.#.o.o.o.o.o.o.o.o.o.o.o.>.d.I t ",
"2 z | $.e.' Y Y K H i 2 w W '.;Xg.g.g.g.g.g.g.g.g.g.g.g.g.g.g.g.g.g.g.g.g.g.} D a i l l l g 0 5 s s s s s s s s s s s s s g 9 - ",
"0 o.cXfXK.t.=.;.p.&XE 0 9 P '.0XO  XO O O O O O O O O O O O O O O O O O O  Xo 0.M 3 - > < 7 y d d y q q q q q q q q q q y y q 7 ",
"g >.cXzXkX$Xz.z.Q.&X>.0 9 P '.0XX o X X X X X X X X X X X X X X X X X X X G.{.`.] z 1 ; 2 I a.%...Y K K K K K K K K K K G G T H ",
"l >.9X8X/.^.D.8.=X9Xo.t w P '.0XX o X X X X X X X X X X X X X X X X X X X o G.`.9Xo.w : 0 ~.hXoXK.2.-.=.=.=.=.=.=.=.=.=.*.*.5.&X",
"l >.iXpXH..X XO :XrXo.t w P '.0XX o X X X X X X X X X X X X X X X X X X X o o `.;Xf.h : j vXhXoXL.k.t.t.t.t.t.t.t.t.t.t.t.t.I.7X",
"l >.rXXXn. X Xn.:XBXo.t w P '.0XX o X X X X X X X X X X X X X X X X X X X o o `.VXf.l 9 Z ~.R.2.t.2.u.u.u.u.u.u.u.u.u.u.2.2.B.&X",
"g >.BX>Xo o o o eXBXo.t w P '.0XX o X X X X X X X X X X X X X X X X X X X o o F.BXx.{ P 9._.S.7.:.6.6.6.6.6.6.6.6.6.6.6.s.s.A.&X",
"l >.BX>Xo o o o eXBXo.t w P '.0XX o X X X X X X X X X X X X X X X X X X X o o F.rXx.c.d.).'.;X`.8.v.v.v.v.v.v.v.v.v.v.v.8.8.=X9X",
"{ x.rXF.o o o o eXBXo.w 6 P '.0XX o X X X X X X X X X X X X X X X X X X X o o F.BXx.,.{ ,._.;XXX X.X.X.X.X.X.X.X.X.X.X.X X X:XBX",
"c.x.rXF.o o o o eXBXo.g w P '.0XX o X X X X X X X X X X X X X X X X X X X o o `.VXf.z t P _.;X.X XO O O O O O O O O O O  X X:XBX",
",.x.rXF.o o o o F.rXf.W P ,.'.0XX o X X X X X X X X X X X X X X X X X X X o o `.VX>.t < n _.qXO o X X X X X X X X X X X o o eXrX",
"B f.BX>Xo o o o }.[.x.d.d.).(.;XX o X X X X X X X X X X X X X X X X X X X o o `.VX>.h < n _.qXO o X X X X X X X X X X X o o :X[.",
"g >.BXO G.o o o :XrXx.,.,.d.(.qXX o X X X X X X X X X X X X X X X X X X X o o `.VX>.h 6 B _.qXO o X X X X X X X X X X X o o :XrX",
"g >.BX>Xo o o o eXBX>.b l W '.0XX o X X X X X X X X X X X X X X X X X X X o o `.VX>.h 6 B _.qXO o X X X X X X X X X X X o o eXBX",
"h >.tXqXF.X G.G.`.BXo.w 6 P '.0XX o X X X X X X X X X X X X X X X X X X X o o `.VX>.t < z _.qXO o X X X X X X X X X X X o o eXBX",
"z >.nXtX;XF.o o eXBXo.w 6 P '.0XX o X X X X X X X X X X X X X X X X X X X o o `.VX>.h 6 B _.qXO o X X X X X X X X X X X o o eXBX",
"I f.bX_.wX;X:X:XqXNXo.w 6 P wXmXo G.o o o o o o o o o o o o o o o o o o o G.o `.9Xf.P z W _.qXO o X X X X X X X X X X X o o eXBX",
"f.x.bXbX_.wX-X-X-XMXo.t w P uXmXX o X X X X X X X X X X X X X X X X X X X o o F.rXx.d.,.c.'.;X`.o X X X X X X X X X X X o o eXBX",
"JXnXnXnXnXnXnXnXJXJXf.S l P [ rX:X`.eXeXeXeXeXeXeXeXeXeXeXeXeXeXeX:X:X}.}.XX X`.;Xx.d.,.d.'.qXX o X X X X X X X X X X X o G.`.BX",
"JXnXnXnXnXbXbXbXbXnX_.x.E z v [ tXKXNXNXNXNXNXNXNXNXNXNXNXNXNXNXNXNX-XtXtX;XF.`.;Xx.P z W _.qXX o X X X X X X X X X X X o o `.BX",
"o.o.#.` _ _ _ _ ` ` 9.9.P 5 ; 0 ! { { { { { { { { { { { { ` _ ! ! { x.bXbXwX;X}.VXf.h 6 B _.9X:XX X o o o o o o o o o o o `.0XNX",
"i i 0 4 5 5 5 5 5 9 0 g 9 ; & : 5 s s s s s s s s s s s s 5 5 2 2 g ,.PXbX_.wXNXtX>.i < m x.MXrX0.X o o o o o o o o o o `.;XtXMX",
"< 7 d N V V V V N c f f f f c N N c f u f f f f f f f u f c N F F L ( >.x.nXnXnXnX>.z 7 S x.LX'.rX}.XXF.F.F.F.F.F.F.XXF.;XwXnXbX",
"2 m | e.h.h.m.m.w.../ / / / ' 1.w.O.) / / ^ ^ ^ ^ ^ ^ / ^ ..w.h.h.%.L b { nXbXbX_.>.z 7 S x.LX_.'.[.rXrXrXrXrXrXrXrXrXrXtXnXbXbX",
"0 >.cXfXsXaXsXsX4XM.4.;.;.4.2.4X3XP.3.;.4.4.4.4.4.4.4.;.4.M.K.aXaXm.R 0 Z f.nXMXMXf.z 7 z o.nXJXnXnXnXnXnXnXnXnXnXnXnXnXnXnXJXJX",
"j f.7XxXkXkXlXlX#XT.Z.Z.Z.Z.E.$XzX$XW.Z.Z.Z.Z.Z.Z.Z.Z.Z.Z.T.zXjXkXU.X.b g S >.MXIXf.m < 3 v >.nXJXbXbXbXbXbXbXbXbXbXbXbXbXnXJXJX",
"h >.9X`.D.D.v.v.v.].].].].].].v.v.v.].].].].].].].].].].].].v.D.v.`.NXo.t 7 S f.|.` g ; % 1 l 9.d.,.,.,.,.,.,.,.,.,.,.,.9.9.#.>.",
"h >.rX1XH.g.g.g.g.H..X.X.X.XH.H.g.H..X.X.X.X.X.X.X.X.X.X.XH.g.g.g.1XNX>.t > 3 i p 5 : # @ % 2 g g j g g g g g g g g g g 0 0 0 t ",
"b >.BXXX X XO O O O X X X X O O O O X X X X X X X X X X X O O  XO :XNXo.t - - q d k d e q q e e y y y y y y y y y y e e r d d q ",
",.x.rXF.o o X X X X X X X X X X X X X X X X X X X X X X X X X o X eXNXo.w ; 5 ( &.$...Y G Y Y J J J J J J J J J J J G G ) O.%.R ",
"c.x.rXF.o o X X X X X X X X X X X X X X X X X X X X X X X X X o X eXNXo.l 5 Z %XgXoXP.=.+.-.-.-.-.-.-.-.-.-.-.-.-.-.+.+.r.K.OXcX",
"9.x.rXF.o o X X X X X X X X X X X X X X X X X X X X X X X X X o X :X-Xf.{ _ b.&XAX5X6Xz.s.z.z.z.z.z.z.z.z.z.z.z.z.z.s.s.$XjXzXcX",
"z >.BX>Xo o X X X X X X X X X X X X X X X X X X X X X X X X X o X }.-Xx.d.d.).vX=X/./.D.D.D.D.D.D.D.D.D.D.D.D.D.D.D.D.D././.FXqX",
"g >.BX>Xo o X X X X X X X X X X X X X X X X X X X X X X X X X o X :X-Xf.W W ,.uX;Xg..X.XO .X.X.X.X.X.X.X.X.X.X.X.X.X.X.X.XH.1XrX",
"l >.BX>Xo o X X X X X X X X X X X X X X X X X X X X X X X X X o X eXNXo.z h W wXqXH. XO O O O O O O O O O O O O O O O O  XO }.rX",
"l >.BXO G.o X X X X X X X X X X X X X X X X X X X X X X X X o G.o >XNXf.P P ,.wX}.o o X X X X X X X X X X X X X X X X X o o :XrX",
"l >.BX>Xo o X X X X X X X X X X X X X X X X X X X X X X X X X o X }.-Xx.d.d.).wXqXX o X X X X X X X X X X X X X X X X X o o :X[.",
"z f.NX;XF.X o o o o o o o o o o o o o o o o o o o o o o o `.}.qX;X9XwXx.,.,.).MXBX}.`.o o o o o o o o o o o o o o o o o G.G.>XrX",
"z >.nXtX9XF.X o X X X X X X X X X X X X X X X X X X X o X }.rX~.'.~.nXo.v i E bXJXrX}.X o X X X X X X X X X X X X X X X o o eXBX",
"t S ,.bXtXqX:X:XCXCXCXCXCXCXCXCXCXCXCXCXCXCXCXCXCXCXCX:XCX;XMXbXbXHXMXo.t < i { ).MX9XCX:XCXCXCXCXCXCXCXCXCXCXCXCXCXCXCX:X:X0XGX",
"> 7 m d.nXMXwXwXwXwXwXwXwXwXwXwXwXwXwXwXwXwXwXwXwXwXwXwXwX'._.x.x.nXnXo.t = - t { ,XMXwXwXwXwXwXwXwXwXwXwXwXwXwXwXwXwXwXwXwXtXMX",
"= = , j C ! Q Q Q Q Q Q Q Q Q Q Q Q Q Q Q Z A A A A A A A A A C S E o.S 7 $ + # 5 A ! A Q Q Q Q Z A Z Q Q Q Q A A A A A A A C I ",
"- - > , 9 9 9 9 9 9 9 9 9 9 9 9 9 9 9 9 9 9 5 2 2 5 5 2 5 5 4 4 7 t t 7 < = & = , 4 9 5 9 9 9 9 9 5 5 9 9 9 9 5 2 2 5 5 2 2 9 7 "
};
